<svg width="40" height="11" viewBox="0 0 40 11" fill="none" xmlns="http://www.w3.org/2000/svg">
<path d="M8.45443 0.220268H1.71388C0.836061 0.220268 0.125 0.937887 0.125 1.82226V8.61996C0.125 9.50433 0.836061 10.222 1.71388 10.222H8.45443C9.33225 10.222 10.0424 9.50433 10.0424 8.61996V1.82226C10.0433 0.93695 9.33225 0.220268 8.45443 0.220268Z" fill="#1677FF"/>
<path d="M8.29047 6.50083C7.89419 6.36686 7.36113 6.16169 6.76811 5.94528C7.12411 5.32041 7.40891 4.60935 7.59628 3.83646H5.6411V3.12634H8.03565V2.73006H5.6411V1.54589H4.66397C4.49253 1.54589 4.49253 1.7164 4.49253 1.7164V2.72912H2.0708V3.1254H4.49253V3.83552H2.49238V4.23181H6.37089C6.22943 4.72458 6.03831 5.18832 5.81254 5.60896C4.55436 5.19019 3.21094 4.85106 2.36778 5.05997C1.82816 5.19394 1.4806 5.43283 1.27637 5.68391C0.339528 6.83341 1.01124 8.57967 2.98984 8.57967C4.15995 8.57967 5.28697 7.92201 6.1601 6.83809C7.46325 7.46952 10.0424 8.55438 10.0424 8.55438V7.00859C10.0433 7.00859 9.71915 6.98236 8.29047 6.50083ZM2.80529 7.91171C1.26231 7.91171 0.806073 6.68632 1.56866 6.01555C1.82348 5.78883 2.28815 5.67828 2.53548 5.65393C3.4517 5.56305 4.30048 5.91531 5.30196 6.40808C4.59839 7.33368 3.70184 7.91171 2.80529 7.91171Z" fill="white"/>
<path d="M21.6599 1.68455C21.6599 2.20168 22.0384 2.55019 22.5658 2.55019C23.0933 2.55019 23.4718 2.20168 23.4718 1.68455C23.4718 1.17678 23.0933 0.818909 22.5658 0.818909C22.0384 0.818909 21.6599 1.17678 21.6599 1.68455Z" fill="#1677FF"/>
<path d="M20.7046 1.03719H19.1326V8.30144H20.7046V1.03719Z" fill="black"/>
<path d="M16.3762 1.28638H14.2665L11.9084 8.30237H13.3615L13.7596 6.92896H16.2572L16.6357 8.30237H18.4963L16.3762 1.28638ZM14.0875 5.78415L15.0225 2.55018H15.0618L15.9472 5.78415H14.0875Z" fill="black"/>
<path d="M23.3518 2.96802H21.7798V8.30237H23.3518V2.96802Z" fill="black"/>
<path d="M39.7821 2.97832L39.7915 2.96802H38.3094L37.3735 6.21229H37.3238L36.2493 2.96802H34.488L36.6072 8.32205L35.7219 9.95402V9.99337H37.1046L39.7821 2.97832Z" fill="black"/>
<path d="M27.2631 2.85841C26.686 2.85841 26.2382 3.07763 25.7305 3.49545V2.96802H24.1584V9.99337H25.7305V8.25178C26.0293 8.33142 26.3076 8.3717 26.6458 8.3717C28.0491 8.3717 29.3129 7.33649 29.3129 5.49561C29.3129 3.84396 28.3976 2.85841 27.2631 2.85841ZM26.2673 7.38614C26.0883 7.38614 25.9188 7.36647 25.7295 7.30652V4.42105C26.0584 4.19246 26.3263 4.08285 26.6645 4.08285C27.2519 4.08285 27.7194 4.55034 27.7194 5.5462C27.7203 6.81936 27.0336 7.38614 26.2673 7.38614Z" fill="black"/>
<path d="M34.1789 6.96831V4.73958C34.1789 3.52543 33.4622 2.85841 32.1984 2.85841C31.3918 2.85841 30.8353 2.99799 29.8198 3.30621L30.098 4.53066C31.0236 4.11283 31.4312 3.9339 31.8593 3.9339C32.3764 3.9339 32.606 4.30207 32.606 4.8698V4.90915C30.8044 5.24734 30.247 5.43658 29.8994 5.78509C29.6409 6.04365 29.5312 6.41183 29.5312 6.83997C29.5312 7.86487 30.3276 8.41198 31.0733 8.41198C31.6307 8.41198 32.0785 8.20307 32.6856 7.74495L32.7952 8.30237H34.3672L34.1789 6.96831ZM32.6069 7.0086C32.1891 7.23719 31.9502 7.32713 31.6719 7.32713C31.2934 7.32713 31.0545 7.07792 31.0545 6.6807C31.0545 6.53175 31.0845 6.38185 31.2035 6.26288C31.3928 6.07363 31.7609 5.93404 32.6069 5.73544V7.0086Z" fill="black"/>
</svg>
