<svg width="174" height="225" viewBox="0 0 174 225" fill="none" xmlns="http://www.w3.org/2000/svg">
<path d="M96.5191 147.435C115.634 147.435 131.129 131.97 131.129 112.892C131.129 93.8137 115.634 78.348 96.5191 78.348C77.4046 78.348 61.9092 93.8137 61.9092 112.892C61.9092 131.97 77.4046 147.435 96.5191 147.435Z" fill="#F45959"/>
<path d="M43.6229 87.2736L10.3675 92.5296C7.96253 92.9159 5.70957 91.2743 5.32256 88.8739L0.0564384 55.682C-0.330574 53.2816 1.31422 51.0329 3.71922 50.6467L36.9746 45.3906C39.3796 45.0043 41.6325 46.646 42.0196 49.0464L47.2857 82.2382C47.6727 84.6386 46.0279 86.8873 43.6229 87.2736Z" fill="#9B99F5"/>
<path d="M49.1379 75.782L50.2021 82.4728C50.7412 85.8251 48.4468 88.9842 45.0742 89.5084L15.2881 94.2127C11.9294 94.7507 8.76421 92.4606 8.23898 89.0946L3.52576 59.3654C2.98671 56.0131 5.28112 52.854 8.65366 52.3297L38.4397 47.6255C41.7984 47.0875 44.9637 49.3775 45.4889 52.7436L47.7557 67.0357" stroke="#01101E" stroke-width="1.37954" stroke-miterlimit="10" stroke-linecap="round"/>
<path d="M103.651 0.472647L77.3207 26.5046C76.4223 27.3875 76.8231 28.905 78.0394 29.2361L113.797 38.9757C115.013 39.3068 116.132 38.2032 115.815 36.9892L106.388 1.21761C106.07 0.00361454 104.55 -0.41026 103.651 0.472647Z" fill="#CDE9D4"/>
<path d="M108.268 8.36357L114.377 31.5537" stroke="#01101E" stroke-width="1.37954" stroke-miterlimit="10" stroke-linecap="round"/>
<path d="M78.0943 120.424H54.1825H7.78256C3.34574 120.424 0.235807 124.797 1.71475 128.977L22.4614 187.801C23.3736 190.367 25.8063 192.091 28.5292 192.091H54.1825H78.0943H103.748C106.484 192.091 108.917 190.367 109.815 187.801L130.783 128.384C132.152 124.494 129.263 120.424 125.144 120.424H78.0943Z" fill="#CDE9D4"/>
<path d="M85.5445 117.003H61.6327H15.2327C10.7959 117.003 7.68601 121.376 9.16494 125.556L29.9116 184.38C30.8238 186.946 33.2564 188.67 35.9793 188.67H61.6327H85.5445H111.198C113.935 188.67 116.367 186.946 117.266 184.38L138.233 124.963C139.602 121.072 136.713 117.003 132.594 117.003H85.5445Z" stroke="#01101E" stroke-width="1.37954" stroke-miterlimit="10"/>
<path d="M137.487 115.113C136.16 115.802 134.667 114.519 135.151 113.112L139.353 100.683C139.933 98.9445 141.564 97.7718 143.402 97.7718H164.135C165.877 97.7718 166.443 100.103 164.895 100.903L137.487 115.113Z" fill="#CDE9D4"/>
<path d="M144.688 115.113C143.361 115.802 141.868 114.519 142.352 113.112L146.554 100.683C147.134 98.9445 148.765 97.7718 150.604 97.7718H171.336C173.078 97.7718 173.645 100.103 172.097 100.903L144.688 115.113Z" stroke="#01101E" stroke-width="1.37954" stroke-miterlimit="10"/>
<path d="M112.788 193.429L110.231 201.238C109.636 203.045 107.95 204.259 106.056 204.259H38.8545" stroke="#01101E" stroke-width="1.37954" stroke-miterlimit="10" stroke-linecap="round"/>
<path d="M94.4182 220.8C97.5633 220.8 100.113 218.255 100.113 215.116C100.113 211.977 97.5633 209.432 94.4182 209.432C91.2732 209.432 88.7236 211.977 88.7236 215.116C88.7236 218.255 91.2732 220.8 94.4182 220.8Z" fill="#CDE9D4"/>
<path d="M49.8704 220.8C53.0155 220.8 55.565 218.255 55.565 215.116C55.565 211.977 53.0155 209.432 49.8704 209.432C46.7254 209.432 44.1758 211.977 44.1758 215.116C44.1758 218.255 46.7254 220.8 49.8704 220.8Z" fill="#CDE9D4"/>
<path d="M52.9524 220.8C56.0975 220.8 58.647 218.255 58.647 215.116C58.647 211.977 56.0975 209.432 52.9524 209.432C49.8074 209.432 47.2578 211.977 47.2578 215.116C47.2578 218.255 49.8074 220.8 52.9524 220.8Z" stroke="#01101E" stroke-width="1.37954" stroke-miterlimit="10" stroke-linecap="round"/>
<path d="M97.5696 220.8C100.715 220.8 103.264 218.255 103.264 215.116C103.264 211.977 100.715 209.432 97.5696 209.432C94.4246 209.432 91.875 211.977 91.875 215.116C91.875 218.255 94.4246 220.8 97.5696 220.8Z" stroke="#01101E" stroke-width="1.37954" stroke-miterlimit="10" stroke-linecap="round"/>
<path d="M14.6797 141.2H94.3212" stroke="#01101E" stroke-width="1.37954" stroke-miterlimit="10" stroke-linecap="round"/>
<path d="M22.2681 162.735H83.0151" stroke="#01101E" stroke-width="1.37954" stroke-miterlimit="10" stroke-linecap="round"/>
<path d="M5.83398 224H147.01" stroke="#01101E" stroke-width="1.37954" stroke-miterlimit="10" stroke-linecap="round"/>
</svg>
