<svg width="33" height="33" viewBox="0 0 33 33" fill="none" xmlns="http://www.w3.org/2000/svg">
<rect x="1.5" y="1.08572" width="30" height="30" rx="6" stroke="#E4E4E4" stroke-width="2"/>
<path fill-rule="evenodd" clip-rule="evenodd" d="M20.25 16.8357H21.75C22.2 16.8357 22.5 17.1357 22.5 17.5857V21.3357C22.5 21.7857 22.2 22.0857 21.75 22.0857H11.25C10.8 22.0857 10.5 21.7857 10.5 21.3357V17.5857C10.5 17.1357 10.8 16.8357 11.25 16.8357H12.75V12.3357C12.75 11.8857 13.05 11.5857 13.5 11.5857H15.75V10.0857H17.25V11.5857H19.5C19.95 11.5857 20.25 11.8857 20.25 12.3357V16.8357ZM14.25 13.0857V17.5857V20.5857H15.75V18.3357H17.25V20.5857H18.75V17.5857V13.0857H14.25Z" fill="#6C6D76"/>
<rect x="15.75" y="14.5857" width="1.5" height="1.5" fill="#6C6D76"/>
</svg>
