<svg width="36" height="36" viewBox="0 0 36 36" fill="none" xmlns="http://www.w3.org/2000/svg">
<circle cx="18" cy="18" r="18" fill="#CDE9D4"/>
<path d="M17.1405 10.9756H14.492C12.3139 10.9756 10.9482 12.5176 10.9482 14.7007V20.5898C10.9482 22.7729 12.3075 24.3149 14.492 24.3149H20.7424C22.9276 24.3149 24.2869 22.7729 24.2869 20.5898V17.7366" stroke="white" stroke-width="1.5" stroke-linecap="round" stroke-linejoin="round"/>
<path fill-rule="evenodd" clip-rule="evenodd" d="M15.2532 16.7357L20.5466 11.4423C21.206 10.7836 22.2749 10.7836 22.9344 11.4423L23.7964 12.3043C24.4559 12.9638 24.4559 14.0334 23.7964 14.6921L18.4775 20.011C18.1892 20.2993 17.7982 20.4615 17.3902 20.4615H14.7368L14.8034 17.784C14.8133 17.3902 14.9741 17.0148 15.2532 16.7357Z" stroke="white" stroke-width="1.5" stroke-linecap="round" stroke-linejoin="round"/>
<path d="M19.7422 12.2601L22.9764 15.4944" stroke="white" stroke-width="1.5" stroke-linecap="round" stroke-linejoin="round"/>
</svg>
