<svg width="20" height="24" viewBox="0 0 20 24" fill="none" xmlns="http://www.w3.org/2000/svg">
<path d="M0 11.6594C0 9.73591 0 8.77417 0.38882 7.92879C0.77764 7.08341 1.50785 6.45751 2.96827 5.20572L4.38494 3.99143C7.02464 1.72883 8.34449 0.597534 9.91667 0.597534C11.4888 0.597534 12.8087 1.72883 15.4484 3.99143L16.8651 5.20572C18.3255 6.45751 19.0557 7.08341 19.4445 7.92879C19.8333 8.77417 19.8333 9.73591 19.8333 11.6594V17.6666C19.8333 20.3379 19.8333 21.6736 19.0035 22.5034C18.1736 23.3333 16.838 23.3333 14.1667 23.3333H5.66667C2.99537 23.3333 1.65973 23.3333 0.829864 22.5034C0 21.6736 0 20.3379 0 17.6666V11.6594Z" fill="#CDE9D4"/>
<path d="M13.4583 22.3333V14.8333C13.4583 14.281 13.0106 13.8333 12.4583 13.8333H7.375C6.82272 13.8333 6.375 14.281 6.375 14.8333V22.3333" stroke="white" stroke-width="2" stroke-linecap="square" stroke-linejoin="round"/>
</svg>
