<svg width="21" height="21" viewBox="0 0 21 21" fill="none" xmlns="http://www.w3.org/2000/svg">
<path fill-rule="evenodd" clip-rule="evenodd" d="M12.4358 6.79211C12.4358 9.1054 10.5428 10.9592 8.18067 10.9592C5.81936 10.9592 3.92552 9.1054 3.92552 6.79211C3.92552 4.47882 5.81936 2.625 8.18067 2.625C10.5428 2.625 12.4358 4.47882 12.4358 6.79211ZM1.75 15.6777C1.75 13.5363 4.71234 13.0005 8.18067 13.0005C11.6678 13.0005 14.6113 13.5547 14.6113 15.6978C14.6113 17.8392 11.649 18.375 8.18067 18.375C4.6935 18.375 1.75 17.8208 1.75 15.6777ZM14.1517 6.86766C14.1517 8.04568 13.7904 9.1449 13.1569 10.058C13.091 10.1519 13.1492 10.2785 13.2639 10.2986C13.4231 10.3246 13.5867 10.3405 13.7536 10.3439C15.4146 10.3866 16.9052 9.33942 17.317 7.76229C17.9274 5.42216 16.1363 3.321 13.8547 3.321C13.6072 3.321 13.3701 3.34616 13.1389 3.39227C13.1072 3.39898 13.073 3.41407 13.0559 3.4409C13.0336 3.47528 13.0499 3.51972 13.0721 3.54906C13.7579 4.49064 14.1517 5.63681 14.1517 6.86766ZM16.9026 11.9895C18.019 12.2033 18.7528 12.6385 19.0567 13.2732C19.3144 13.793 19.3144 14.3967 19.0567 14.9166C18.5918 15.8992 17.0918 16.2153 16.5088 16.2967C16.3881 16.3134 16.2913 16.2128 16.3041 16.0938C16.6021 13.3705 14.2331 12.0792 13.6201 11.7824C13.5944 11.7682 13.5884 11.748 13.591 11.7346C13.5927 11.7262 13.6038 11.7128 13.6235 11.7103C14.9497 11.6852 16.3761 11.8638 16.9026 11.9895Z" fill="#1C1C25"/>
</svg>
