<svg width="21" height="24" viewBox="0 0 21 24" fill="none" xmlns="http://www.w3.org/2000/svg">
<path d="M5.76221 7.31622L5.76221 6.08414C5.76221 3.3623 7.9687 1.15581 10.6905 1.15581V1.15581C13.4124 1.15581 15.6189 3.3623 15.6189 6.08414L15.6189 7.31622" stroke="#6C6D76" stroke-width="2" stroke-linecap="round"/>
<path d="M14.3867 14.7087V12.2445" stroke="#6C6D76" stroke-width="2" stroke-linecap="round"/>
<path d="M6.99414 14.7087V12.2445" stroke="#6C6D76" stroke-width="2" stroke-linecap="round"/>
<path d="M1.8335 15.3248C1.8335 13.4081 1.83561 12.071 1.97105 11.0623C2.10265 10.0822 2.34338 9.5637 2.71218 9.1949C3.08119 8.82589 3.59929 8.58529 4.57766 8.45375C5.58479 8.31835 6.91961 8.31622 8.8335 8.31622H12.5468C14.4607 8.31622 15.7955 8.31835 16.8027 8.45375C17.781 8.58529 18.2991 8.82589 18.6681 9.1949C19.0369 9.5637 19.2777 10.0822 19.4093 11.0623C19.5447 12.071 19.5468 13.4081 19.5468 15.3248C19.5468 17.2415 19.5447 18.5785 19.4093 19.5872C19.2777 20.5673 19.0369 21.0858 18.6681 21.4546C18.2991 21.8236 17.781 22.0642 16.8027 22.1958C15.7955 22.3312 14.4607 22.3333 12.5468 22.3333H8.8335C6.91961 22.3333 5.58479 22.3312 4.57766 22.1958C3.59929 22.0642 3.08119 21.8236 2.71218 21.4546C2.34338 21.0858 2.10265 20.5673 1.97105 19.5872C1.83561 18.5785 1.8335 17.2415 1.8335 15.3248Z" stroke="#6C6D76" stroke-width="2"/>
</svg>
