<svg width="32" height="20" viewBox="0 0 32 20" fill="none" xmlns="http://www.w3.org/2000/svg">
<path fill-rule="evenodd" clip-rule="evenodd" d="M16.0713 17.6229C14.3832 19.0797 12.1935 19.9591 9.8008 19.9591C4.46186 19.9591 0.133789 15.5808 0.133789 10.1798C0.133789 4.77893 4.46186 0.40062 9.8008 0.40062C12.1935 0.40062 14.3832 1.28002 16.0713 2.73676C17.7594 1.28002 19.9491 0.40062 22.3418 0.40062C27.6807 0.40062 32.0088 4.77893 32.0088 10.1799C32.0088 15.5808 27.6807 19.9591 22.3418 19.9591C19.9491 19.9591 17.7594 19.0797 16.0713 17.6229Z" fill="#ED0006"/>
<path fill-rule="evenodd" clip-rule="evenodd" d="M16.0713 17.6229C18.1498 15.8292 19.4677 13.1602 19.4677 10.1799C19.4677 7.19947 18.1498 4.53049 16.0713 2.7368C17.7594 1.28004 19.9491 0.40062 22.3418 0.40062C27.6808 0.40062 32.0088 4.77893 32.0088 10.1799C32.0088 15.5808 27.6808 19.9591 22.3418 19.9591C19.9491 19.9591 17.7594 19.0797 16.0713 17.6229Z" fill="#F9A000"/>
<path fill-rule="evenodd" clip-rule="evenodd" d="M16.0713 17.6229C18.1498 15.8292 19.4677 13.1602 19.4677 10.1798C19.4677 7.19947 18.1498 4.53048 16.0713 2.73679C13.9928 4.53048 12.6748 7.19947 12.6748 10.1798C12.6748 13.1602 13.9928 15.8292 16.0713 17.6229Z" fill="#FF5E00"/>
</svg>
