<svg width="349" height="512" viewBox="0 0 349 512" fill="none" xmlns="http://www.w3.org/2000/svg">
<path d="M226.849 274.16C225.036 271.583 224.562 268.347 225.737 265.461L227.982 259.896C237.541 236.274 225.531 208.551 200.749 199.626C176.708 190.968 149.948 202.346 140.637 225.35L137.753 232.461C136.599 235.305 134.045 237.367 130.955 238.088C114.516 241.922 100.24 253.114 93.6272 269.439C90.2281 277.849 118.574 296.524 156.932 311.138C195.31 325.752 229.177 330.781 232.576 322.372C239.292 305.799 236.531 287.908 226.849 274.16Z" fill="#9B99F5"/>
<path d="M195.763 323.072C215.91 327.607 230.413 327.71 232.596 322.351C239.292 305.799 236.531 287.908 226.849 274.16C225.036 271.583 224.562 268.347 225.737 265.461L227.982 259.896C237.541 236.274 225.531 208.551 200.748 199.626C176.708 190.968 149.948 202.346 140.637 225.35L137.753 232.461C136.599 235.305 134.045 237.367 130.955 238.088C114.516 241.922 100.24 253.114 93.6271 269.439C90.846 276.324 109.324 290.072 137.135 302.852" stroke="white" stroke-width="2.06123" stroke-miterlimit="10" stroke-linecap="round"/>
<path d="M225.551 317.815C228.248 310.705 202.756 294.429 168.613 281.46C134.469 268.491 104.604 263.741 101.907 270.85C99.2097 277.96 124.702 294.236 158.845 307.205C192.988 320.174 222.854 324.924 225.551 317.815Z" fill="#CDE9D4"/>
<path d="M189.934 292.752L186.823 311.612L185.587 319.012C184.207 327.442 174.175 333.049 163.236 331.544C152.256 330.06 144.51 322.021 145.89 313.611L148.033 300.667L151.885 277.169C156.026 278.344 182.126 287.928 189.934 292.752Z" fill="#F45959"/>
<path d="M193.971 295.04L191.252 311.488L190.016 318.888C188.636 327.319 178.603 332.925 167.664 331.42C156.685 329.936 148.939 321.897 150.319 313.488L152.461 300.543L155.861 279.828" stroke="white" stroke-width="2.06123" stroke-miterlimit="10" stroke-linecap="round"/>
<path d="M120.242 195.812C131.506 195.812 140.637 186.676 140.637 175.406C140.637 164.136 131.506 155 120.242 155C108.979 155 99.8481 164.136 99.8481 175.406C99.8481 186.676 108.979 195.812 120.242 195.812Z" fill="#CDE9D4"/>
<path d="M125.433 198.987C136.697 198.987 145.828 189.851 145.828 178.581C145.828 167.311 136.697 158.174 125.433 158.174C114.17 158.174 105.039 167.311 105.039 178.581C105.039 189.851 114.17 198.987 125.433 198.987Z" stroke="white" stroke-width="2.06123" stroke-miterlimit="10" stroke-linecap="round"/>
<path d="M105.308 348.322L98.0562 375.943C97.5824 377.757 99.2509 379.406 101.064 378.911L128.606 371.388C130.419 370.893 131.017 368.626 129.678 367.286L109.386 347.189C108.047 345.89 105.781 346.509 105.308 348.322Z" fill="#CDE9D4"/>
<path d="M281.625 265.646C281.378 266.533 281.028 267.337 280.533 268.058C280.513 268.099 280.492 268.14 280.451 268.182L276.928 271.006L265.474 280.199C263.579 281.703 260.778 280.961 259.892 278.694L254.597 265.007L252.949 260.741C252.949 260.699 252.949 260.658 252.949 260.617C252.888 259.751 252.97 258.865 253.217 257.979C254.371 253.691 258.8 251.135 263.085 252.29C265.742 253.011 267.74 254.969 268.606 257.402C270.563 255.732 273.282 255.031 275.939 255.753C280.245 256.927 282.779 261.338 281.625 265.646Z" fill="#CDE9D4"/>
<path d="M286.199 265.44C285.931 266.409 285.54 267.295 285.004 268.079C284.963 268.12 284.943 268.161 284.922 268.202L281.09 271.294L268.586 281.332C266.526 282.981 263.457 282.157 262.488 279.704L256.72 264.76L254.928 260.102C254.928 260.061 254.928 260.019 254.928 259.978C254.866 259.03 254.949 258.082 255.216 257.113C256.473 252.434 261.294 249.651 265.99 250.909C268.895 251.692 271.079 253.836 272.006 256.474C274.128 254.66 277.094 253.897 279.999 254.66C284.675 255.917 287.456 260.761 286.199 265.44Z" stroke="white" stroke-width="2.06123" stroke-miterlimit="10"/>
<path d="M62.5 271.377C62.5 271.377 72.5736 284.816 88.2916 294.71" stroke="white" stroke-width="2.06123" stroke-miterlimit="10" stroke-linecap="round"/>
<path d="M87.8308 435.208C87.3282 435.208 86.9382 435.069 86.6608 434.792C86.4008 434.515 86.2708 434.116 86.2708 433.596V418.126C86.2708 417.589 86.4008 417.181 86.6608 416.904C86.9382 416.609 87.2935 416.462 87.7268 416.462C88.1255 416.462 88.4202 416.54 88.6108 416.696C88.8188 416.835 89.0615 417.077 89.3388 417.424L99.2968 430.346H98.6208V418.048C98.6208 417.545 98.7508 417.155 99.0108 416.878C99.2882 416.601 99.6782 416.462 100.181 416.462C100.683 416.462 101.065 416.601 101.325 416.878C101.585 417.155 101.715 417.545 101.715 418.048V433.648C101.715 434.133 101.593 434.515 101.351 434.792C101.108 435.069 100.779 435.208 100.363 435.208C99.9642 435.208 99.6435 435.13 99.4008 434.974C99.1755 434.818 98.9242 434.567 98.6468 434.22L88.7148 421.298H89.3648V433.596C89.3648 434.116 89.2348 434.515 88.9748 434.792C88.7148 435.069 88.3335 435.208 87.8308 435.208ZM111.076 435.26C109.759 435.26 108.615 434.991 107.644 434.454C106.673 433.917 105.919 433.154 105.382 432.166C104.845 431.161 104.576 429.982 104.576 428.63C104.576 427.607 104.723 426.697 105.018 425.9C105.33 425.085 105.772 424.392 106.344 423.82C106.916 423.231 107.601 422.789 108.398 422.494C109.195 422.182 110.088 422.026 111.076 422.026C112.393 422.026 113.537 422.295 114.508 422.832C115.479 423.369 116.233 424.132 116.77 425.12C117.307 426.108 117.576 427.278 117.576 428.63C117.576 429.653 117.42 430.571 117.108 431.386C116.813 432.201 116.38 432.903 115.808 433.492C115.236 434.064 114.551 434.506 113.754 434.818C112.957 435.113 112.064 435.26 111.076 435.26ZM111.076 432.79C111.717 432.79 112.281 432.634 112.766 432.322C113.251 432.01 113.624 431.551 113.884 430.944C114.161 430.32 114.3 429.549 114.3 428.63C114.3 427.243 114.005 426.212 113.416 425.536C112.827 424.843 112.047 424.496 111.076 424.496C110.435 424.496 109.871 424.652 109.386 424.964C108.901 425.259 108.519 425.718 108.242 426.342C107.982 426.949 107.852 427.711 107.852 428.63C107.852 429.999 108.147 431.039 108.736 431.75C109.325 432.443 110.105 432.79 111.076 432.79ZM128.929 435.208C128.426 435.208 128.036 435.069 127.759 434.792C127.499 434.515 127.369 434.116 127.369 433.596V418.126C127.369 417.589 127.499 417.181 127.759 416.904C128.036 416.609 128.392 416.462 128.825 416.462C129.224 416.462 129.518 416.54 129.709 416.696C129.917 416.835 130.16 417.077 130.437 417.424L140.395 430.346H139.719V418.048C139.719 417.545 139.849 417.155 140.109 416.878C140.386 416.601 140.776 416.462 141.279 416.462C141.782 416.462 142.163 416.601 142.423 416.878C142.683 417.155 142.813 417.545 142.813 418.048V433.648C142.813 434.133 142.692 434.515 142.449 434.792C142.206 435.069 141.877 435.208 141.461 435.208C141.062 435.208 140.742 435.13 140.499 434.974C140.274 434.818 140.022 434.567 139.745 434.22L129.813 421.298H130.463V433.596C130.463 434.116 130.333 434.515 130.073 434.792C129.813 435.069 129.432 435.208 128.929 435.208ZM152.174 435.26C150.857 435.26 149.713 434.991 148.742 434.454C147.772 433.917 147.018 433.154 146.48 432.166C145.943 431.161 145.674 429.982 145.674 428.63C145.674 427.607 145.822 426.697 146.116 425.9C146.428 425.085 146.87 424.392 147.442 423.82C148.014 423.231 148.699 422.789 149.496 422.494C150.294 422.182 151.186 422.026 152.174 422.026C153.492 422.026 154.636 422.295 155.606 422.832C156.577 423.369 157.331 424.132 157.868 425.12C158.406 426.108 158.674 427.278 158.674 428.63C158.674 429.653 158.518 430.571 158.206 431.386C157.912 432.201 157.478 432.903 156.906 433.492C156.334 434.064 155.65 434.506 154.852 434.818C154.055 435.113 153.162 435.26 152.174 435.26ZM152.174 432.79C152.816 432.79 153.379 432.634 153.864 432.322C154.35 432.01 154.722 431.551 154.982 430.944C155.26 430.32 155.398 429.549 155.398 428.63C155.398 427.243 155.104 426.212 154.514 425.536C153.925 424.843 153.145 424.496 152.174 424.496C151.533 424.496 150.97 424.652 150.484 424.964C149.999 425.259 149.618 425.718 149.34 426.342C149.08 426.949 148.95 427.711 148.95 428.63C148.95 429.999 149.245 431.039 149.834 431.75C150.424 432.443 151.204 432.79 152.174 432.79ZM166.924 435.26C165.797 435.26 164.853 435.069 164.09 434.688C163.345 434.307 162.79 433.752 162.426 433.024C162.062 432.279 161.88 431.36 161.88 430.268V424.73H160.528C160.112 424.73 159.791 424.626 159.566 424.418C159.341 424.193 159.228 423.889 159.228 423.508C159.228 423.109 159.341 422.806 159.566 422.598C159.791 422.39 160.112 422.286 160.528 422.286H161.88V419.92C161.88 419.383 162.019 418.975 162.296 418.698C162.591 418.421 162.998 418.282 163.518 418.282C164.038 418.282 164.437 418.421 164.714 418.698C164.991 418.975 165.13 419.383 165.13 419.92V422.286H167.886C168.302 422.286 168.623 422.39 168.848 422.598C169.073 422.806 169.186 423.109 169.186 423.508C169.186 423.889 169.073 424.193 168.848 424.418C168.623 424.626 168.302 424.73 167.886 424.73H165.13V430.086C165.13 430.918 165.312 431.542 165.676 431.958C166.04 432.374 166.629 432.582 167.444 432.582C167.739 432.582 167.999 432.556 168.224 432.504C168.449 432.452 168.649 432.417 168.822 432.4C169.03 432.383 169.203 432.452 169.342 432.608C169.481 432.747 169.55 433.041 169.55 433.492C169.55 433.839 169.489 434.151 169.368 434.428C169.264 434.688 169.065 434.87 168.77 434.974C168.545 435.043 168.25 435.104 167.886 435.156C167.522 435.225 167.201 435.26 166.924 435.26ZM172.89 435.182C172.37 435.182 171.972 435.026 171.694 434.714C171.417 434.402 171.278 433.969 171.278 433.414V423.872C171.278 423.3 171.417 422.867 171.694 422.572C171.972 422.26 172.37 422.104 172.89 422.104C173.41 422.104 173.809 422.26 174.086 422.572C174.381 422.867 174.528 423.3 174.528 423.872V433.414C174.528 433.969 174.39 434.402 174.112 434.714C173.835 435.026 173.428 435.182 172.89 435.182ZM172.89 419.686C172.284 419.686 171.807 419.539 171.46 419.244C171.131 418.932 170.966 418.507 170.966 417.97C170.966 417.415 171.131 416.991 171.46 416.696C171.807 416.401 172.284 416.254 172.89 416.254C173.514 416.254 173.991 416.401 174.32 416.696C174.65 416.991 174.814 417.415 174.814 417.97C174.814 418.507 174.65 418.932 174.32 419.244C173.991 419.539 173.514 419.686 172.89 419.686ZM180.271 435.208C179.751 435.208 179.344 435.069 179.049 434.792C178.772 434.497 178.633 434.081 178.633 433.544V424.73H177.437C177.021 424.73 176.701 424.626 176.475 424.418C176.25 424.193 176.137 423.889 176.137 423.508C176.137 423.109 176.25 422.806 176.475 422.598C176.701 422.39 177.021 422.286 177.437 422.286H179.569L178.633 423.144V422.26C178.633 420.509 179.075 419.183 179.959 418.282C180.843 417.381 182.126 416.843 183.807 416.67L184.587 416.592C184.986 416.557 185.298 416.609 185.523 416.748C185.766 416.887 185.922 417.077 185.991 417.32C186.078 417.545 186.095 417.788 186.043 418.048C185.991 418.291 185.887 418.507 185.731 418.698C185.575 418.871 185.376 418.967 185.133 418.984L184.509 419.036C183.591 419.105 182.923 419.357 182.507 419.79C182.091 420.223 181.883 420.873 181.883 421.74V422.702L181.467 422.286H188.669C189.189 422.286 189.588 422.442 189.865 422.754C190.143 423.049 190.281 423.473 190.281 424.028V433.414C190.281 433.969 190.143 434.402 189.865 434.714C189.605 435.026 189.207 435.182 188.669 435.182C188.149 435.182 187.742 435.026 187.447 434.714C187.17 434.402 187.031 433.969 187.031 433.414V424.73H181.883V433.544C181.883 434.653 181.346 435.208 180.271 435.208ZM188.721 419.686C188.132 419.686 187.673 419.539 187.343 419.244C187.031 418.932 186.875 418.507 186.875 417.97C186.875 417.415 187.031 416.991 187.343 416.696C187.673 416.401 188.132 416.254 188.721 416.254C189.328 416.254 189.787 416.401 190.099 416.696C190.429 416.991 190.593 417.415 190.593 417.97C190.593 418.507 190.429 418.932 190.099 419.244C189.787 419.539 189.328 419.686 188.721 419.686ZM199.416 435.26C198.081 435.26 196.92 434.991 195.932 434.454C194.944 433.899 194.181 433.119 193.644 432.114C193.107 431.109 192.838 429.93 192.838 428.578C192.838 427.555 192.985 426.645 193.28 425.848C193.592 425.033 194.034 424.349 194.606 423.794C195.178 423.222 195.871 422.789 196.686 422.494C197.501 422.182 198.411 422.026 199.416 422.026C199.988 422.026 200.603 422.104 201.262 422.26C201.938 422.416 202.571 422.676 203.16 423.04C203.437 423.213 203.619 423.421 203.706 423.664C203.793 423.907 203.81 424.158 203.758 424.418C203.706 424.661 203.593 424.877 203.42 425.068C203.264 425.241 203.065 425.354 202.822 425.406C202.579 425.441 202.311 425.38 202.016 425.224C201.635 424.999 201.245 424.834 200.846 424.73C200.447 424.609 200.066 424.548 199.702 424.548C199.13 424.548 198.627 424.643 198.194 424.834C197.761 425.007 197.388 425.267 197.076 425.614C196.781 425.943 196.556 426.359 196.4 426.862C196.244 427.365 196.166 427.945 196.166 428.604C196.166 429.887 196.469 430.901 197.076 431.646C197.7 432.374 198.575 432.738 199.702 432.738C200.066 432.738 200.439 432.686 200.82 432.582C201.219 432.478 201.617 432.313 202.016 432.088C202.311 431.932 202.571 431.88 202.796 431.932C203.039 431.984 203.238 432.105 203.394 432.296C203.55 432.469 203.645 432.686 203.68 432.946C203.715 433.189 203.68 433.431 203.576 433.674C203.489 433.917 203.316 434.116 203.056 434.272C202.484 434.619 201.877 434.87 201.236 435.026C200.595 435.182 199.988 435.26 199.416 435.26ZM209.783 435.26C208.865 435.26 208.041 435.087 207.313 434.74C206.603 434.376 206.039 433.891 205.623 433.284C205.225 432.677 205.025 431.993 205.025 431.23C205.025 430.294 205.268 429.557 205.753 429.02C206.239 428.465 207.027 428.067 208.119 427.824C209.211 427.581 210.676 427.46 212.513 427.46H213.813V429.332H212.539C211.465 429.332 210.607 429.384 209.965 429.488C209.324 429.592 208.865 429.774 208.587 430.034C208.327 430.277 208.197 430.623 208.197 431.074C208.197 431.646 208.397 432.114 208.795 432.478C209.194 432.842 209.749 433.024 210.459 433.024C211.031 433.024 211.534 432.894 211.967 432.634C212.418 432.357 212.773 431.984 213.033 431.516C213.293 431.048 213.423 430.511 213.423 429.904V426.914C213.423 426.047 213.233 425.423 212.851 425.042C212.47 424.661 211.829 424.47 210.927 424.47C210.425 424.47 209.879 424.531 209.289 424.652C208.717 424.773 208.111 424.981 207.469 425.276C207.14 425.432 206.845 425.475 206.585 425.406C206.343 425.337 206.152 425.198 206.013 424.99C205.875 424.765 205.805 424.522 205.805 424.262C205.805 424.002 205.875 423.751 206.013 423.508C206.152 423.248 206.386 423.057 206.715 422.936C207.513 422.607 208.275 422.373 209.003 422.234C209.749 422.095 210.425 422.026 211.031 422.026C212.279 422.026 213.302 422.217 214.099 422.598C214.914 422.979 215.521 423.56 215.919 424.34C216.318 425.103 216.517 426.091 216.517 427.304V433.544C216.517 434.081 216.387 434.497 216.127 434.792C215.867 435.069 215.495 435.208 215.009 435.208C214.524 435.208 214.143 435.069 213.865 434.792C213.605 434.497 213.475 434.081 213.475 433.544V432.296H213.683C213.562 432.903 213.319 433.431 212.955 433.882C212.609 434.315 212.167 434.653 211.629 434.896C211.092 435.139 210.477 435.26 209.783 435.26ZM225.51 435.26C224.384 435.26 223.439 435.069 222.676 434.688C221.931 434.307 221.376 433.752 221.012 433.024C220.648 432.279 220.466 431.36 220.466 430.268V424.73H219.114C218.698 424.73 218.378 424.626 218.152 424.418C217.927 424.193 217.814 423.889 217.814 423.508C217.814 423.109 217.927 422.806 218.152 422.598C218.378 422.39 218.698 422.286 219.114 422.286H220.466V419.92C220.466 419.383 220.605 418.975 220.882 418.698C221.177 418.421 221.584 418.282 222.104 418.282C222.624 418.282 223.023 418.421 223.3 418.698C223.578 418.975 223.716 419.383 223.716 419.92V422.286H226.472C226.888 422.286 227.209 422.39 227.434 422.598C227.66 422.806 227.772 423.109 227.772 423.508C227.772 423.889 227.66 424.193 227.434 424.418C227.209 424.626 226.888 424.73 226.472 424.73H223.716V430.086C223.716 430.918 223.898 431.542 224.262 431.958C224.626 432.374 225.216 432.582 226.03 432.582C226.325 432.582 226.585 432.556 226.81 432.504C227.036 432.452 227.235 432.417 227.408 432.4C227.616 432.383 227.79 432.452 227.928 432.608C228.067 432.747 228.136 433.041 228.136 433.492C228.136 433.839 228.076 434.151 227.954 434.428C227.85 434.688 227.651 434.87 227.356 434.974C227.131 435.043 226.836 435.104 226.472 435.156C226.108 435.225 225.788 435.26 225.51 435.26ZM231.477 435.182C230.957 435.182 230.558 435.026 230.281 434.714C230.003 434.402 229.865 433.969 229.865 433.414V423.872C229.865 423.3 230.003 422.867 230.281 422.572C230.558 422.26 230.957 422.104 231.477 422.104C231.997 422.104 232.395 422.26 232.673 422.572C232.967 422.867 233.115 423.3 233.115 423.872V433.414C233.115 433.969 232.976 434.402 232.699 434.714C232.421 435.026 232.014 435.182 231.477 435.182ZM231.477 419.686C230.87 419.686 230.393 419.539 230.047 419.244C229.717 418.932 229.553 418.507 229.553 417.97C229.553 417.415 229.717 416.991 230.047 416.696C230.393 416.401 230.87 416.254 231.477 416.254C232.101 416.254 232.577 416.401 232.907 416.696C233.236 416.991 233.401 417.415 233.401 417.97C233.401 418.507 233.236 418.932 232.907 419.244C232.577 419.539 232.101 419.686 231.477 419.686ZM242.16 435.26C240.842 435.26 239.698 434.991 238.728 434.454C237.757 433.917 237.003 433.154 236.466 432.166C235.928 431.161 235.66 429.982 235.66 428.63C235.66 427.607 235.807 426.697 236.102 425.9C236.414 425.085 236.856 424.392 237.428 423.82C238 423.231 238.684 422.789 239.482 422.494C240.279 422.182 241.172 422.026 242.16 422.026C243.477 422.026 244.621 422.295 245.592 422.832C246.562 423.369 247.316 424.132 247.854 425.12C248.391 426.108 248.66 427.278 248.66 428.63C248.66 429.653 248.504 430.571 248.192 431.386C247.897 432.201 247.464 432.903 246.892 433.492C246.32 434.064 245.635 434.506 244.838 434.818C244.04 435.113 243.148 435.26 242.16 435.26ZM242.16 432.79C242.801 432.79 243.364 432.634 243.85 432.322C244.335 432.01 244.708 431.551 244.968 430.944C245.245 430.32 245.384 429.549 245.384 428.63C245.384 427.243 245.089 426.212 244.5 425.536C243.91 424.843 243.13 424.496 242.16 424.496C241.518 424.496 240.955 424.652 240.47 424.964C239.984 425.259 239.603 425.718 239.326 426.342C239.066 426.949 238.936 427.711 238.936 428.63C238.936 429.999 239.23 431.039 239.82 431.75C240.409 432.443 241.189 432.79 242.16 432.79ZM252.824 435.208C252.304 435.208 251.906 435.069 251.628 434.792C251.351 434.497 251.212 434.081 251.212 433.544V423.716C251.212 423.179 251.351 422.771 251.628 422.494C251.906 422.217 252.296 422.078 252.798 422.078C253.301 422.078 253.691 422.217 253.968 422.494C254.246 422.771 254.384 423.179 254.384 423.716V425.484L254.098 424.834C254.48 423.915 255.069 423.222 255.866 422.754C256.681 422.269 257.6 422.026 258.622 422.026C259.645 422.026 260.486 422.217 261.144 422.598C261.803 422.979 262.297 423.56 262.626 424.34C262.956 425.103 263.12 426.073 263.12 427.252V433.544C263.12 434.081 262.982 434.497 262.704 434.792C262.427 435.069 262.028 435.208 261.508 435.208C260.988 435.208 260.581 435.069 260.286 434.792C260.009 434.497 259.87 434.081 259.87 433.544V427.408C259.87 426.42 259.68 425.701 259.298 425.25C258.934 424.799 258.362 424.574 257.582 424.574C256.629 424.574 255.866 424.877 255.294 425.484C254.74 426.073 254.462 426.862 254.462 427.85V433.544C254.462 434.653 253.916 435.208 252.824 435.208Z" fill="white"/>
<path d="M39.8591 488.098C39.6258 488.098 39.4438 488.033 39.3131 487.902C39.1918 487.771 39.1311 487.589 39.1311 487.356V479.348H36.1631C35.9671 479.348 35.8131 479.297 35.7011 479.194C35.5891 479.082 35.5331 478.928 35.5331 478.732C35.5331 478.536 35.5891 478.387 35.7011 478.284C35.8131 478.181 35.9671 478.13 36.1631 478.13H43.5411C43.7465 478.13 43.9051 478.181 44.0172 478.284C44.1291 478.387 44.1851 478.536 44.1851 478.732C44.1851 478.928 44.1291 479.082 44.0172 479.194C43.9051 479.297 43.7465 479.348 43.5411 479.348H40.5731V487.356C40.5731 487.589 40.5125 487.771 40.3911 487.902C40.2791 488.033 40.1018 488.098 39.8591 488.098ZM46.3046 488.098C46.0806 488.098 45.908 488.037 45.7866 487.916C45.6653 487.785 45.6046 487.608 45.6046 487.384V478.746C45.6046 478.513 45.6653 478.335 45.7866 478.214C45.908 478.093 46.0806 478.032 46.3046 478.032C46.5286 478.032 46.7013 478.093 46.8226 478.214C46.9533 478.335 47.0186 478.513 47.0186 478.746V482.624H46.8226C47.028 482.101 47.35 481.709 47.7886 481.448C48.2273 481.177 48.7313 481.042 49.3006 481.042C49.842 481.042 50.29 481.145 50.6446 481.35C51.0086 481.546 51.2793 481.849 51.4566 482.26C51.634 482.661 51.7226 483.17 51.7226 483.786V487.384C51.7226 487.608 51.662 487.785 51.5406 487.916C51.4193 488.037 51.2466 488.098 51.0226 488.098C50.7893 488.098 50.612 488.037 50.4906 487.916C50.3693 487.785 50.3086 487.608 50.3086 487.384V483.87C50.3086 483.282 50.192 482.853 49.9586 482.582C49.7346 482.311 49.38 482.176 48.8946 482.176C48.3253 482.176 47.868 482.353 47.5226 482.708C47.1866 483.063 47.0186 483.539 47.0186 484.136V487.384C47.0186 487.86 46.7806 488.098 46.3046 488.098ZM56.807 488.126C56.0604 488.126 55.4164 487.986 54.875 487.706C54.343 487.417 53.9277 487.011 53.629 486.488C53.3397 485.956 53.195 485.326 53.195 484.598C53.195 483.889 53.3397 483.268 53.629 482.736C53.9184 482.204 54.315 481.789 54.819 481.49C55.323 481.191 55.897 481.042 56.541 481.042C57.017 481.042 57.4417 481.121 57.815 481.28C58.1884 481.429 58.5057 481.653 58.767 481.952C59.0377 482.241 59.2384 482.596 59.369 483.016C59.509 483.436 59.579 483.907 59.579 484.43C59.579 484.589 59.5324 484.71 59.439 484.794C59.3457 484.869 59.2057 484.906 59.019 484.906H54.315V484.038H58.627L58.389 484.234C58.389 483.767 58.319 483.371 58.179 483.044C58.0484 482.717 57.8477 482.47 57.577 482.302C57.3157 482.125 56.989 482.036 56.597 482.036C56.1584 482.036 55.785 482.139 55.477 482.344C55.1784 482.549 54.9497 482.834 54.791 483.198C54.6324 483.562 54.553 483.987 54.553 484.472V484.556C54.553 485.377 54.7444 485.998 55.127 486.418C55.519 486.829 56.0837 487.034 56.821 487.034C57.101 487.034 57.395 486.997 57.703 486.922C58.0204 486.847 58.319 486.721 58.599 486.544C58.7577 486.451 58.8977 486.409 59.019 486.418C59.1497 486.427 59.2524 486.469 59.327 486.544C59.411 486.619 59.4624 486.712 59.481 486.824C59.4997 486.936 59.481 487.053 59.425 487.174C59.369 487.286 59.271 487.389 59.131 487.482C58.8137 487.697 58.445 487.86 58.025 487.972C57.605 488.075 57.199 488.126 56.807 488.126ZM61.7646 488.098C61.5312 488.098 61.3539 488.037 61.2326 487.916C61.1112 487.785 61.0506 487.608 61.0506 487.384V481.784C61.0506 481.551 61.1112 481.373 61.2326 481.252C61.3539 481.131 61.5219 481.07 61.7366 481.07C61.9606 481.07 62.1286 481.131 62.2406 481.252C62.3619 481.373 62.4226 481.551 62.4226 481.784V482.806H62.2826C62.4319 482.246 62.7072 481.821 63.1086 481.532C63.5099 481.243 64.0232 481.075 64.6486 481.028C64.8166 481.019 64.9472 481.061 65.0406 481.154C65.1432 481.247 65.1992 481.392 65.2086 481.588C65.2272 481.784 65.1852 481.943 65.0826 482.064C64.9799 482.176 64.8212 482.241 64.6066 482.26L64.3406 482.288C63.7339 482.344 63.2719 482.535 62.9546 482.862C62.6372 483.189 62.4786 483.637 62.4786 484.206V487.384C62.4786 487.608 62.4179 487.785 62.2966 487.916C62.1846 488.037 62.0072 488.098 61.7646 488.098ZM69.3135 488.126C68.5668 488.126 67.9228 487.986 67.3815 487.706C66.8495 487.417 66.4342 487.011 66.1355 486.488C65.8462 485.956 65.7015 485.326 65.7015 484.598C65.7015 483.889 65.8462 483.268 66.1355 482.736C66.4248 482.204 66.8215 481.789 67.3255 481.49C67.8295 481.191 68.4035 481.042 69.0475 481.042C69.5235 481.042 69.9482 481.121 70.3215 481.28C70.6948 481.429 71.0122 481.653 71.2735 481.952C71.5442 482.241 71.7448 482.596 71.8755 483.016C72.0155 483.436 72.0855 483.907 72.0855 484.43C72.0855 484.589 72.0388 484.71 71.9455 484.794C71.8522 484.869 71.7122 484.906 71.5255 484.906H66.8215V484.038H71.1335L70.8955 484.234C70.8955 483.767 70.8255 483.371 70.6855 483.044C70.5548 482.717 70.3542 482.47 70.0835 482.302C69.8222 482.125 69.4955 482.036 69.1035 482.036C68.6648 482.036 68.2915 482.139 67.9835 482.344C67.6848 482.549 67.4562 482.834 67.2975 483.198C67.1388 483.562 67.0595 483.987 67.0595 484.472V484.556C67.0595 485.377 67.2508 485.998 67.6335 486.418C68.0255 486.829 68.5902 487.034 69.3275 487.034C69.6075 487.034 69.9015 486.997 70.2095 486.922C70.5268 486.847 70.8255 486.721 71.1055 486.544C71.2642 486.451 71.4042 486.409 71.5255 486.418C71.6562 486.427 71.7588 486.469 71.8335 486.544C71.9175 486.619 71.9688 486.712 71.9875 486.824C72.0062 486.936 71.9875 487.053 71.9315 487.174C71.8755 487.286 71.7775 487.389 71.6375 487.482C71.3202 487.697 70.9515 487.86 70.5315 487.972C70.1115 488.075 69.7055 488.126 69.3135 488.126ZM77.8784 488.098C77.6544 488.098 77.4818 488.037 77.3604 487.916C77.2391 487.785 77.1784 487.608 77.1784 487.384V478.746C77.1784 478.513 77.2391 478.335 77.3604 478.214C77.4818 478.093 77.6544 478.032 77.8784 478.032C78.1024 478.032 78.2751 478.093 78.3964 478.214C78.5271 478.335 78.5924 478.513 78.5924 478.746V482.624H78.3964C78.6018 482.101 78.9238 481.709 79.3624 481.448C79.8011 481.177 80.3051 481.042 80.8744 481.042C81.4158 481.042 81.8638 481.145 82.2184 481.35C82.5824 481.546 82.8531 481.849 83.0304 482.26C83.2078 482.661 83.2964 483.17 83.2964 483.786V487.384C83.2964 487.608 83.2358 487.785 83.1144 487.916C82.9931 488.037 82.8204 488.098 82.5964 488.098C82.3631 488.098 82.1858 488.037 82.0644 487.916C81.9431 487.785 81.8824 487.608 81.8824 487.384V483.87C81.8824 483.282 81.7658 482.853 81.5324 482.582C81.3084 482.311 80.9538 482.176 80.4684 482.176C79.8991 482.176 79.4418 482.353 79.0964 482.708C78.7604 483.063 78.5924 483.539 78.5924 484.136V487.384C78.5924 487.86 78.3544 488.098 77.8784 488.098ZM87.3588 488.126C86.8828 488.126 86.4535 488.033 86.0708 487.846C85.6975 487.659 85.4035 487.407 85.1888 487.09C84.9742 486.773 84.8668 486.413 84.8668 486.012C84.8668 485.508 84.9928 485.111 85.2448 484.822C85.5062 484.523 85.9308 484.313 86.5188 484.192C87.1162 484.061 87.9188 483.996 88.9268 483.996H89.5848V484.864H88.9408C88.2688 484.864 87.7368 484.897 87.3448 484.962C86.9528 485.027 86.6728 485.139 86.5048 485.298C86.3462 485.447 86.2668 485.657 86.2668 485.928C86.2668 486.283 86.3882 486.572 86.6308 486.796C86.8735 487.011 87.2095 487.118 87.6388 487.118C87.9842 487.118 88.2875 487.039 88.5488 486.88C88.8102 486.712 89.0155 486.488 89.1648 486.208C89.3235 485.928 89.4028 485.606 89.4028 485.242V483.632C89.4028 483.1 89.2908 482.717 89.0668 482.484C88.8428 482.251 88.4742 482.134 87.9608 482.134C87.6622 482.134 87.3495 482.171 87.0228 482.246C86.7055 482.321 86.3742 482.447 86.0288 482.624C85.8702 482.699 85.7348 482.722 85.6228 482.694C85.5108 482.666 85.4222 482.605 85.3568 482.512C85.2915 482.409 85.2542 482.302 85.2448 482.19C85.2448 482.069 85.2728 481.952 85.3288 481.84C85.3942 481.728 85.5015 481.644 85.6508 481.588C86.0615 481.392 86.4675 481.252 86.8688 481.168C87.2702 481.084 87.6482 481.042 88.0028 481.042C88.6282 481.042 89.1415 481.14 89.5428 481.336C89.9535 481.532 90.2568 481.831 90.4528 482.232C90.6488 482.633 90.7468 483.151 90.7468 483.786V487.384C90.7468 487.608 90.6908 487.785 90.5788 487.916C90.4668 488.037 90.3035 488.098 90.0888 488.098C89.8835 488.098 89.7202 488.037 89.5988 487.916C89.4775 487.785 89.4168 487.608 89.4168 487.384V486.474H89.5428C89.4682 486.819 89.3282 487.118 89.1228 487.37C88.9268 487.613 88.6795 487.799 88.3808 487.93C88.0822 488.061 87.7415 488.126 87.3588 488.126ZM95.0184 488.126C94.6077 488.126 94.1831 488.079 93.7444 487.986C93.3151 487.893 92.9184 487.734 92.5544 487.51C92.4331 487.426 92.3491 487.333 92.3024 487.23C92.2557 487.127 92.2371 487.025 92.2464 486.922C92.2651 486.81 92.3071 486.717 92.3724 486.642C92.4471 486.558 92.5357 486.507 92.6384 486.488C92.7504 486.469 92.8671 486.493 92.9884 486.558C93.3524 486.763 93.7024 486.908 94.0384 486.992C94.3744 487.067 94.7057 487.104 95.0324 487.104C95.5271 487.104 95.9004 487.015 96.1524 486.838C96.4044 486.661 96.5304 486.423 96.5304 486.124C96.5304 485.881 96.4464 485.695 96.2784 485.564C96.1104 485.424 95.8584 485.317 95.5224 485.242L94.1924 484.976C93.6137 484.855 93.1751 484.64 92.8764 484.332C92.5777 484.024 92.4284 483.632 92.4284 483.156C92.4284 482.727 92.5451 482.353 92.7784 482.036C93.0117 481.719 93.3384 481.476 93.7584 481.308C94.1784 481.131 94.6637 481.042 95.2144 481.042C95.6251 481.042 96.0124 481.093 96.3764 481.196C96.7404 481.299 97.0764 481.453 97.3844 481.658C97.5057 481.723 97.5851 481.812 97.6224 481.924C97.6597 482.027 97.6644 482.129 97.6364 482.232C97.6177 482.335 97.5711 482.428 97.4964 482.512C97.4217 482.587 97.3284 482.633 97.2164 482.652C97.1137 482.661 96.9971 482.633 96.8664 482.568C96.5864 482.391 96.3064 482.265 96.0264 482.19C95.7557 482.115 95.4851 482.078 95.2144 482.078C94.7197 482.078 94.3464 482.171 94.0944 482.358C93.8517 482.535 93.7304 482.778 93.7304 483.086C93.7304 483.319 93.8051 483.511 93.9544 483.66C94.1037 483.809 94.3371 483.917 94.6544 483.982L95.9844 484.248C96.5911 484.369 97.0484 484.575 97.3564 484.864C97.6737 485.153 97.8324 485.545 97.8324 486.04C97.8324 486.684 97.5757 487.193 97.0624 487.566C96.5491 487.939 95.8677 488.126 95.0184 488.126ZM106.625 488.126C106.028 488.126 105.51 487.977 105.071 487.678C104.632 487.37 104.338 486.964 104.189 486.46L104.343 486.208V487.384C104.343 487.608 104.282 487.785 104.161 487.916C104.04 488.037 103.872 488.098 103.657 488.098C103.433 488.098 103.26 488.037 103.139 487.916C103.018 487.785 102.957 487.608 102.957 487.384V478.746C102.957 478.513 103.018 478.335 103.139 478.214C103.26 478.093 103.433 478.032 103.657 478.032C103.881 478.032 104.054 478.093 104.175 478.214C104.306 478.335 104.371 478.513 104.371 478.746V482.666H104.203C104.352 482.171 104.646 481.779 105.085 481.49C105.524 481.191 106.037 481.042 106.625 481.042C107.241 481.042 107.773 481.187 108.221 481.476C108.669 481.765 109.014 482.171 109.257 482.694C109.509 483.217 109.635 483.847 109.635 484.584C109.635 485.303 109.509 485.933 109.257 486.474C109.014 487.006 108.664 487.417 108.207 487.706C107.759 487.986 107.232 488.126 106.625 488.126ZM106.275 487.034C106.667 487.034 107.008 486.941 107.297 486.754C107.586 486.567 107.81 486.292 107.969 485.928C108.128 485.564 108.207 485.116 108.207 484.584C108.207 483.781 108.03 483.175 107.675 482.764C107.33 482.353 106.863 482.148 106.275 482.148C105.892 482.148 105.552 482.241 105.253 482.428C104.964 482.605 104.74 482.876 104.581 483.24C104.422 483.604 104.343 484.052 104.343 484.584C104.343 485.377 104.52 485.984 104.875 486.404C105.23 486.824 105.696 487.034 106.275 487.034ZM114.365 488.126C113.618 488.126 112.974 487.986 112.433 487.706C111.901 487.417 111.485 487.011 111.187 486.488C110.897 485.956 110.753 485.326 110.753 484.598C110.753 483.889 110.897 483.268 111.187 482.736C111.476 482.204 111.873 481.789 112.377 481.49C112.881 481.191 113.455 481.042 114.099 481.042C114.575 481.042 114.999 481.121 115.373 481.28C115.746 481.429 116.063 481.653 116.325 481.952C116.595 482.241 116.796 482.596 116.927 483.016C117.067 483.436 117.137 483.907 117.137 484.43C117.137 484.589 117.09 484.71 116.997 484.794C116.903 484.869 116.763 484.906 116.577 484.906H111.873V484.038H116.185L115.947 484.234C115.947 483.767 115.877 483.371 115.737 483.044C115.606 482.717 115.405 482.47 115.135 482.302C114.873 482.125 114.547 482.036 114.155 482.036C113.716 482.036 113.343 482.139 113.035 482.344C112.736 482.549 112.507 482.834 112.349 483.198C112.19 483.562 112.111 483.987 112.111 484.472V484.556C112.111 485.377 112.302 485.998 112.685 486.418C113.077 486.829 113.641 487.034 114.379 487.034C114.659 487.034 114.953 486.997 115.261 486.922C115.578 486.847 115.877 486.721 116.157 486.544C116.315 486.451 116.455 486.409 116.577 486.418C116.707 486.427 116.81 486.469 116.885 486.544C116.969 486.619 117.02 486.712 117.039 486.824C117.057 486.936 117.039 487.053 116.983 487.174C116.927 487.286 116.829 487.389 116.689 487.482C116.371 487.697 116.003 487.86 115.583 487.972C115.163 488.075 114.757 488.126 114.365 488.126ZM121.814 488.126C121.067 488.126 120.423 487.986 119.882 487.706C119.35 487.417 118.935 487.011 118.636 486.488C118.347 485.956 118.202 485.326 118.202 484.598C118.202 483.889 118.347 483.268 118.636 482.736C118.925 482.204 119.322 481.789 119.826 481.49C120.33 481.191 120.904 481.042 121.548 481.042C122.024 481.042 122.449 481.121 122.822 481.28C123.195 481.429 123.513 481.653 123.774 481.952C124.045 482.241 124.245 482.596 124.376 483.016C124.516 483.436 124.586 483.907 124.586 484.43C124.586 484.589 124.539 484.71 124.446 484.794C124.353 484.869 124.213 484.906 124.026 484.906H119.322V484.038H123.634L123.396 484.234C123.396 483.767 123.326 483.371 123.186 483.044C123.055 482.717 122.855 482.47 122.584 482.302C122.323 482.125 121.996 482.036 121.604 482.036C121.165 482.036 120.792 482.139 120.484 482.344C120.185 482.549 119.957 482.834 119.798 483.198C119.639 483.562 119.56 483.987 119.56 484.472V484.556C119.56 485.377 119.751 485.998 120.134 486.418C120.526 486.829 121.091 487.034 121.828 487.034C122.108 487.034 122.402 486.997 122.71 486.922C123.027 486.847 123.326 486.721 123.606 486.544C123.765 486.451 123.905 486.409 124.026 486.418C124.157 486.427 124.259 486.469 124.334 486.544C124.418 486.619 124.469 486.712 124.488 486.824C124.507 486.936 124.488 487.053 124.432 487.174C124.376 487.286 124.278 487.389 124.138 487.482C123.821 487.697 123.452 487.86 123.032 487.972C122.612 488.075 122.206 488.126 121.814 488.126ZM126.758 488.098C126.534 488.098 126.361 488.037 126.24 487.916C126.118 487.785 126.058 487.608 126.058 487.384V481.784C126.058 481.551 126.118 481.373 126.24 481.252C126.361 481.131 126.529 481.07 126.744 481.07C126.968 481.07 127.136 481.131 127.248 481.252C127.369 481.373 127.43 481.551 127.43 481.784V482.876L127.276 482.624C127.481 482.101 127.803 481.709 128.242 481.448C128.68 481.177 129.184 481.042 129.754 481.042C130.295 481.042 130.743 481.145 131.098 481.35C131.462 481.546 131.732 481.849 131.91 482.26C132.087 482.661 132.176 483.17 132.176 483.786V487.384C132.176 487.608 132.115 487.785 131.994 487.916C131.872 488.037 131.7 488.098 131.476 488.098C131.242 488.098 131.065 488.037 130.944 487.916C130.822 487.785 130.762 487.608 130.762 487.384V483.87C130.762 483.282 130.645 482.853 130.412 482.582C130.188 482.311 129.833 482.176 129.348 482.176C128.778 482.176 128.321 482.353 127.976 482.708C127.64 483.063 127.472 483.539 127.472 484.136V487.384C127.472 487.86 127.234 488.098 126.758 488.098ZM138.375 488.098C138.151 488.098 137.979 488.037 137.857 487.916C137.736 487.785 137.675 487.608 137.675 487.384V481.784C137.675 481.551 137.736 481.373 137.857 481.252C137.979 481.131 138.147 481.07 138.361 481.07C138.585 481.07 138.753 481.131 138.865 481.252C138.987 481.373 139.047 481.551 139.047 481.784V482.876L138.893 482.624C139.099 482.101 139.421 481.709 139.859 481.448C140.298 481.177 140.802 481.042 141.371 481.042C141.913 481.042 142.361 481.145 142.715 481.35C143.079 481.546 143.35 481.849 143.527 482.26C143.705 482.661 143.793 483.17 143.793 483.786V487.384C143.793 487.608 143.733 487.785 143.611 487.916C143.49 488.037 143.317 488.098 143.093 488.098C142.86 488.098 142.683 488.037 142.561 487.916C142.44 487.785 142.379 487.608 142.379 487.384V483.87C142.379 483.282 142.263 482.853 142.029 482.582C141.805 482.311 141.451 482.176 140.965 482.176C140.396 482.176 139.939 482.353 139.593 482.708C139.257 483.063 139.089 483.539 139.089 484.136V487.384C139.089 487.86 138.851 488.098 138.375 488.098ZM148.64 488.126C147.949 488.126 147.352 487.981 146.848 487.692C146.353 487.403 145.966 486.992 145.686 486.46C145.406 485.928 145.266 485.303 145.266 484.584C145.266 484.033 145.345 483.543 145.504 483.114C145.662 482.685 145.886 482.316 146.176 482.008C146.474 481.691 146.829 481.453 147.24 481.294C147.66 481.126 148.126 481.042 148.64 481.042C149.321 481.042 149.909 481.187 150.404 481.476C150.908 481.765 151.3 482.176 151.58 482.708C151.86 483.231 152 483.856 152 484.584C152 485.125 151.92 485.615 151.762 486.054C151.603 486.493 151.374 486.866 151.076 487.174C150.786 487.482 150.432 487.72 150.012 487.888C149.601 488.047 149.144 488.126 148.64 488.126ZM148.64 487.034C149.022 487.034 149.358 486.941 149.648 486.754C149.937 486.567 150.161 486.292 150.32 485.928C150.488 485.564 150.572 485.116 150.572 484.584C150.572 483.781 150.394 483.175 150.04 482.764C149.685 482.353 149.218 482.148 148.64 482.148C148.248 482.148 147.907 482.241 147.618 482.428C147.328 482.605 147.1 482.876 146.932 483.24C146.773 483.604 146.694 484.052 146.694 484.584C146.694 485.377 146.871 485.984 147.226 486.404C147.58 486.824 148.052 487.034 148.64 487.034ZM157.839 488.098C157.615 488.098 157.443 488.037 157.321 487.916C157.2 487.785 157.139 487.608 157.139 487.384V481.784C157.139 481.551 157.2 481.373 157.321 481.252C157.443 481.131 157.611 481.07 157.825 481.07C158.049 481.07 158.217 481.131 158.329 481.252C158.451 481.373 158.511 481.551 158.511 481.784V482.876L158.357 482.624C158.563 482.101 158.885 481.709 159.323 481.448C159.762 481.177 160.266 481.042 160.835 481.042C161.377 481.042 161.825 481.145 162.179 481.35C162.543 481.546 162.814 481.849 162.991 482.26C163.169 482.661 163.257 483.17 163.257 483.786V487.384C163.257 487.608 163.197 487.785 163.075 487.916C162.954 488.037 162.781 488.098 162.557 488.098C162.324 488.098 162.147 488.037 162.025 487.916C161.904 487.785 161.843 487.608 161.843 487.384V483.87C161.843 483.282 161.727 482.853 161.493 482.582C161.269 482.311 160.915 482.176 160.429 482.176C159.86 482.176 159.403 482.353 159.057 482.708C158.721 483.063 158.553 483.539 158.553 484.136V487.384C158.553 487.86 158.315 488.098 157.839 488.098ZM168.104 488.126C167.413 488.126 166.816 487.981 166.312 487.692C165.817 487.403 165.43 486.992 165.15 486.46C164.87 485.928 164.73 485.303 164.73 484.584C164.73 484.033 164.809 483.543 164.968 483.114C165.126 482.685 165.35 482.316 165.64 482.008C165.938 481.691 166.293 481.453 166.704 481.294C167.124 481.126 167.59 481.042 168.104 481.042C168.785 481.042 169.373 481.187 169.868 481.476C170.372 481.765 170.764 482.176 171.044 482.708C171.324 483.231 171.464 483.856 171.464 484.584C171.464 485.125 171.384 485.615 171.226 486.054C171.067 486.493 170.838 486.866 170.54 487.174C170.25 487.482 169.896 487.72 169.476 487.888C169.065 488.047 168.608 488.126 168.104 488.126ZM168.104 487.034C168.486 487.034 168.822 486.941 169.112 486.754C169.401 486.567 169.625 486.292 169.784 485.928C169.952 485.564 170.036 485.116 170.036 484.584C170.036 483.781 169.858 483.175 169.504 482.764C169.149 482.353 168.682 482.148 168.104 482.148C167.712 482.148 167.371 482.241 167.082 482.428C166.792 482.605 166.564 482.876 166.396 483.24C166.237 483.604 166.158 484.052 166.158 484.584C166.158 485.377 166.335 485.984 166.69 486.404C167.044 486.824 167.516 487.034 168.104 487.034ZM175.825 488.126C175.265 488.126 174.794 488.028 174.411 487.832C174.029 487.636 173.744 487.347 173.557 486.964C173.371 486.581 173.277 486.115 173.277 485.564V482.26H172.437C172.251 482.26 172.106 482.213 172.003 482.12C171.901 482.017 171.849 481.882 171.849 481.714C171.849 481.537 171.901 481.401 172.003 481.308C172.106 481.215 172.251 481.168 172.437 481.168H173.277V479.726C173.277 479.493 173.338 479.315 173.459 479.194C173.59 479.073 173.767 479.012 173.991 479.012C174.215 479.012 174.388 479.073 174.509 479.194C174.631 479.315 174.691 479.493 174.691 479.726V481.168H176.329C176.516 481.168 176.661 481.215 176.763 481.308C176.866 481.401 176.917 481.537 176.917 481.714C176.917 481.882 176.866 482.017 176.763 482.12C176.661 482.213 176.516 482.26 176.329 482.26H174.691V485.452C174.691 485.947 174.794 486.32 174.999 486.572C175.214 486.824 175.559 486.95 176.035 486.95C176.203 486.95 176.348 486.936 176.469 486.908C176.6 486.871 176.707 486.847 176.791 486.838C176.894 486.838 176.978 486.875 177.043 486.95C177.109 487.015 177.141 487.146 177.141 487.342C177.141 487.482 177.113 487.613 177.057 487.734C177.011 487.855 176.922 487.935 176.791 487.972C176.679 488.009 176.525 488.042 176.329 488.07C176.143 488.107 175.975 488.126 175.825 488.126ZM178.78 488.084C178.556 488.084 178.383 488.019 178.262 487.888C178.14 487.748 178.08 487.557 178.08 487.314V481.854C178.08 481.611 178.14 481.425 178.262 481.294C178.383 481.163 178.556 481.098 178.78 481.098C179.004 481.098 179.176 481.163 179.298 481.294C179.428 481.425 179.494 481.611 179.494 481.854V487.314C179.494 487.557 179.433 487.748 179.312 487.888C179.19 488.019 179.013 488.084 178.78 488.084ZM178.78 479.642C178.5 479.642 178.28 479.572 178.122 479.432C177.972 479.292 177.898 479.096 177.898 478.844C177.898 478.583 177.972 478.387 178.122 478.256C178.28 478.116 178.5 478.046 178.78 478.046C179.06 478.046 179.274 478.116 179.424 478.256C179.582 478.387 179.662 478.583 179.662 478.844C179.662 479.096 179.582 479.292 179.424 479.432C179.274 479.572 179.06 479.642 178.78 479.642ZM182.534 488.098C182.31 488.098 182.133 488.037 182.002 487.916C181.881 487.785 181.82 487.608 181.82 487.384V482.26H181.036C180.859 482.26 180.719 482.213 180.616 482.12C180.513 482.017 180.462 481.882 180.462 481.714C180.462 481.537 180.513 481.401 180.616 481.308C180.719 481.215 180.859 481.168 181.036 481.168H182.226L181.82 481.546V481.042C181.82 480.137 182.044 479.446 182.492 478.97C182.94 478.494 183.598 478.214 184.466 478.13L184.886 478.102C185.054 478.083 185.189 478.107 185.292 478.172C185.395 478.228 185.465 478.312 185.502 478.424C185.539 478.527 185.544 478.634 185.516 478.746C185.488 478.858 185.437 478.956 185.362 479.04C185.297 479.115 185.213 479.157 185.11 479.166L184.732 479.194C184.209 479.231 183.827 479.385 183.584 479.656C183.351 479.927 183.234 480.323 183.234 480.846V481.392L183.038 481.168H186.874C187.107 481.168 187.285 481.238 187.406 481.378C187.527 481.509 187.588 481.691 187.588 481.924V487.314C187.588 487.557 187.527 487.748 187.406 487.888C187.294 488.019 187.117 488.084 186.874 488.084C186.65 488.084 186.477 488.019 186.356 487.888C186.235 487.748 186.174 487.557 186.174 487.314V482.26H183.234V487.384C183.234 487.86 183.001 488.098 182.534 488.098ZM186.902 479.642C186.631 479.642 186.421 479.572 186.272 479.432C186.123 479.292 186.048 479.096 186.048 478.844C186.048 478.583 186.123 478.387 186.272 478.256C186.421 478.116 186.631 478.046 186.902 478.046C187.182 478.046 187.392 478.116 187.532 478.256C187.681 478.387 187.756 478.583 187.756 478.844C187.756 479.096 187.681 479.292 187.532 479.432C187.392 479.572 187.182 479.642 186.902 479.642ZM192.502 488.126C191.802 488.126 191.196 487.981 190.682 487.692C190.178 487.393 189.786 486.978 189.506 486.446C189.226 485.905 189.086 485.27 189.086 484.542C189.086 484.001 189.166 483.515 189.324 483.086C189.483 482.647 189.707 482.279 189.996 481.98C190.295 481.681 190.654 481.453 191.074 481.294C191.504 481.126 191.98 481.042 192.502 481.042C192.829 481.042 193.17 481.093 193.524 481.196C193.888 481.289 194.224 481.448 194.532 481.672C194.654 481.747 194.728 481.84 194.756 481.952C194.794 482.055 194.798 482.162 194.77 482.274C194.752 482.386 194.7 482.484 194.616 482.568C194.542 482.643 194.448 482.689 194.336 482.708C194.224 482.717 194.103 482.685 193.972 482.61C193.748 482.451 193.52 482.339 193.286 482.274C193.053 482.199 192.829 482.162 192.614 482.162C192.278 482.162 191.98 482.218 191.718 482.33C191.466 482.433 191.252 482.587 191.074 482.792C190.897 482.988 190.762 483.235 190.668 483.534C190.584 483.833 190.542 484.173 190.542 484.556C190.542 485.321 190.72 485.923 191.074 486.362C191.438 486.791 191.952 487.006 192.614 487.006C192.829 487.006 193.053 486.973 193.286 486.908C193.52 486.843 193.748 486.731 193.972 486.572C194.103 486.497 194.224 486.469 194.336 486.488C194.448 486.507 194.537 486.558 194.602 486.642C194.677 486.717 194.724 486.81 194.742 486.922C194.77 487.025 194.766 487.132 194.728 487.244C194.691 487.356 194.612 487.449 194.49 487.524C194.192 487.739 193.865 487.893 193.51 487.986C193.165 488.079 192.829 488.126 192.502 488.126ZM198.087 488.126C197.611 488.126 197.181 488.033 196.799 487.846C196.425 487.659 196.131 487.407 195.917 487.09C195.702 486.773 195.595 486.413 195.595 486.012C195.595 485.508 195.721 485.111 195.973 484.822C196.234 484.523 196.659 484.313 197.247 484.192C197.844 484.061 198.647 483.996 199.655 483.996H200.313V484.864H199.669C198.997 484.864 198.465 484.897 198.073 484.962C197.681 485.027 197.401 485.139 197.233 485.298C197.074 485.447 196.995 485.657 196.995 485.928C196.995 486.283 197.116 486.572 197.359 486.796C197.601 487.011 197.937 487.118 198.367 487.118C198.712 487.118 199.015 487.039 199.277 486.88C199.538 486.712 199.743 486.488 199.893 486.208C200.051 485.928 200.131 485.606 200.131 485.242V483.632C200.131 483.1 200.019 482.717 199.795 482.484C199.571 482.251 199.202 482.134 198.689 482.134C198.39 482.134 198.077 482.171 197.751 482.246C197.433 482.321 197.102 482.447 196.757 482.624C196.598 482.699 196.463 482.722 196.351 482.694C196.239 482.666 196.15 482.605 196.085 482.512C196.019 482.409 195.982 482.302 195.973 482.19C195.973 482.069 196.001 481.952 196.057 481.84C196.122 481.728 196.229 481.644 196.379 481.588C196.789 481.392 197.195 481.252 197.597 481.168C197.998 481.084 198.376 481.042 198.731 481.042C199.356 481.042 199.869 481.14 200.271 481.336C200.681 481.532 200.985 481.831 201.181 482.232C201.377 482.633 201.475 483.151 201.475 483.786V487.384C201.475 487.608 201.419 487.785 201.307 487.916C201.195 488.037 201.031 488.098 200.817 488.098C200.611 488.098 200.448 488.037 200.327 487.916C200.205 487.785 200.145 487.608 200.145 487.384V486.474H200.271C200.196 486.819 200.056 487.118 199.851 487.37C199.655 487.613 199.407 487.799 199.109 487.93C198.81 488.061 198.469 488.126 198.087 488.126ZM206.264 488.126C205.704 488.126 205.233 488.028 204.85 487.832C204.468 487.636 204.183 487.347 203.996 486.964C203.81 486.581 203.716 486.115 203.716 485.564V482.26H202.876C202.69 482.26 202.545 482.213 202.442 482.12C202.34 482.017 202.288 481.882 202.288 481.714C202.288 481.537 202.34 481.401 202.442 481.308C202.545 481.215 202.69 481.168 202.876 481.168H203.716V479.726C203.716 479.493 203.777 479.315 203.898 479.194C204.029 479.073 204.206 479.012 204.43 479.012C204.654 479.012 204.827 479.073 204.948 479.194C205.07 479.315 205.13 479.493 205.13 479.726V481.168H206.768C206.955 481.168 207.1 481.215 207.202 481.308C207.305 481.401 207.356 481.537 207.356 481.714C207.356 481.882 207.305 482.017 207.202 482.12C207.1 482.213 206.955 482.26 206.768 482.26H205.13V485.452C205.13 485.947 205.233 486.32 205.438 486.572C205.653 486.824 205.998 486.95 206.474 486.95C206.642 486.95 206.787 486.936 206.908 486.908C207.039 486.871 207.146 486.847 207.23 486.838C207.333 486.838 207.417 486.875 207.482 486.95C207.548 487.015 207.58 487.146 207.58 487.342C207.58 487.482 207.552 487.613 207.496 487.734C207.45 487.855 207.361 487.935 207.23 487.972C207.118 488.009 206.964 488.042 206.768 488.07C206.582 488.107 206.414 488.126 206.264 488.126ZM209.219 488.084C208.995 488.084 208.822 488.019 208.701 487.888C208.579 487.748 208.519 487.557 208.519 487.314V481.854C208.519 481.611 208.579 481.425 208.701 481.294C208.822 481.163 208.995 481.098 209.219 481.098C209.443 481.098 209.615 481.163 209.737 481.294C209.867 481.425 209.933 481.611 209.933 481.854V487.314C209.933 487.557 209.872 487.748 209.751 487.888C209.629 488.019 209.452 488.084 209.219 488.084ZM209.219 479.642C208.939 479.642 208.719 479.572 208.561 479.432C208.411 479.292 208.337 479.096 208.337 478.844C208.337 478.583 208.411 478.387 208.561 478.256C208.719 478.116 208.939 478.046 209.219 478.046C209.499 478.046 209.713 478.116 209.863 478.256C210.021 478.387 210.101 478.583 210.101 478.844C210.101 479.096 210.021 479.292 209.863 479.432C209.713 479.572 209.499 479.642 209.219 479.642ZM214.821 488.126C214.13 488.126 213.533 487.981 213.029 487.692C212.534 487.403 212.147 486.992 211.867 486.46C211.587 485.928 211.447 485.303 211.447 484.584C211.447 484.033 211.526 483.543 211.685 483.114C211.844 482.685 212.068 482.316 212.357 482.008C212.656 481.691 213.01 481.453 213.421 481.294C213.841 481.126 214.308 481.042 214.821 481.042C215.502 481.042 216.09 481.187 216.585 481.476C217.089 481.765 217.481 482.176 217.761 482.708C218.041 483.231 218.181 483.856 218.181 484.584C218.181 485.125 218.102 485.615 217.943 486.054C217.784 486.493 217.556 486.866 217.257 487.174C216.968 487.482 216.613 487.72 216.193 487.888C215.782 488.047 215.325 488.126 214.821 488.126ZM214.821 487.034C215.204 487.034 215.54 486.941 215.829 486.754C216.118 486.567 216.342 486.292 216.501 485.928C216.669 485.564 216.753 485.116 216.753 484.584C216.753 483.781 216.576 483.175 216.221 482.764C215.866 482.353 215.4 482.148 214.821 482.148C214.429 482.148 214.088 482.241 213.799 482.428C213.51 482.605 213.281 482.876 213.113 483.24C212.954 483.604 212.875 484.052 212.875 484.584C212.875 485.377 213.052 485.984 213.407 486.404C213.762 486.824 214.233 487.034 214.821 487.034ZM220.399 488.098C220.175 488.098 220.002 488.037 219.881 487.916C219.76 487.785 219.699 487.608 219.699 487.384V481.784C219.699 481.551 219.76 481.373 219.881 481.252C220.002 481.131 220.17 481.07 220.385 481.07C220.609 481.07 220.777 481.131 220.889 481.252C221.01 481.373 221.071 481.551 221.071 481.784V482.876L220.917 482.624C221.122 482.101 221.444 481.709 221.883 481.448C222.322 481.177 222.826 481.042 223.395 481.042C223.936 481.042 224.384 481.145 224.739 481.35C225.103 481.546 225.374 481.849 225.551 482.26C225.728 482.661 225.817 483.17 225.817 483.786V487.384C225.817 487.608 225.756 487.785 225.635 487.916C225.514 488.037 225.341 488.098 225.117 488.098C224.884 488.098 224.706 488.037 224.585 487.916C224.464 487.785 224.403 487.608 224.403 487.384V483.87C224.403 483.282 224.286 482.853 224.053 482.582C223.829 482.311 223.474 482.176 222.989 482.176C222.42 482.176 221.962 482.353 221.617 482.708C221.281 483.063 221.113 483.539 221.113 484.136V487.384C221.113 487.86 220.875 488.098 220.399 488.098ZM232.437 488.098C232.213 488.098 232.035 488.037 231.905 487.916C231.783 487.785 231.723 487.608 231.723 487.384V482.26H230.939C230.761 482.26 230.621 482.213 230.519 482.12C230.416 482.017 230.365 481.882 230.365 481.714C230.365 481.537 230.416 481.401 230.519 481.308C230.621 481.215 230.761 481.168 230.939 481.168H232.129L231.723 481.546V481.042C231.723 480.118 231.951 479.423 232.409 478.956C232.866 478.48 233.533 478.2 234.411 478.116L234.845 478.088C235.003 478.069 235.129 478.093 235.223 478.158C235.316 478.223 235.377 478.307 235.405 478.41C235.433 478.513 235.433 478.62 235.405 478.732C235.386 478.835 235.339 478.928 235.265 479.012C235.19 479.096 235.097 479.143 234.985 479.152L234.719 479.166C234.168 479.213 233.767 479.371 233.515 479.642C233.263 479.903 233.137 480.305 233.137 480.846V481.392L232.941 481.168H234.495C234.691 481.168 234.835 481.215 234.929 481.308C235.031 481.401 235.083 481.537 235.083 481.714C235.083 481.882 235.031 482.017 234.929 482.12C234.835 482.213 234.691 482.26 234.495 482.26H233.137V487.384C233.137 487.86 232.903 488.098 232.437 488.098ZM238.877 488.126C238.186 488.126 237.589 487.981 237.085 487.692C236.59 487.403 236.203 486.992 235.923 486.46C235.643 485.928 235.503 485.303 235.503 484.584C235.503 484.033 235.582 483.543 235.741 483.114C235.9 482.685 236.124 482.316 236.413 482.008C236.712 481.691 237.066 481.453 237.477 481.294C237.897 481.126 238.364 481.042 238.877 481.042C239.558 481.042 240.146 481.187 240.641 481.476C241.145 481.765 241.537 482.176 241.817 482.708C242.097 483.231 242.237 483.856 242.237 484.584C242.237 485.125 242.158 485.615 241.999 486.054C241.84 486.493 241.612 486.866 241.313 487.174C241.024 487.482 240.669 487.72 240.249 487.888C239.838 488.047 239.381 488.126 238.877 488.126ZM238.877 487.034C239.26 487.034 239.596 486.941 239.885 486.754C240.174 486.567 240.398 486.292 240.557 485.928C240.725 485.564 240.809 485.116 240.809 484.584C240.809 483.781 240.632 483.175 240.277 482.764C239.922 482.353 239.456 482.148 238.877 482.148C238.485 482.148 238.144 482.241 237.855 482.428C237.566 482.605 237.337 482.876 237.169 483.24C237.01 483.604 236.931 484.052 236.931 484.584C236.931 485.377 237.108 485.984 237.463 486.404C237.818 486.824 238.289 487.034 238.877 487.034ZM244.469 488.098C244.236 488.098 244.058 488.037 243.937 487.916C243.816 487.785 243.755 487.608 243.755 487.384V481.784C243.755 481.551 243.816 481.373 243.937 481.252C244.058 481.131 244.226 481.07 244.441 481.07C244.665 481.07 244.833 481.131 244.945 481.252C245.066 481.373 245.127 481.551 245.127 481.784V482.806H244.987C245.136 482.246 245.412 481.821 245.813 481.532C246.214 481.243 246.728 481.075 247.353 481.028C247.521 481.019 247.652 481.061 247.745 481.154C247.848 481.247 247.904 481.392 247.913 481.588C247.932 481.784 247.89 481.943 247.787 482.064C247.684 482.176 247.526 482.241 247.311 482.26L247.045 482.288C246.438 482.344 245.976 482.535 245.659 482.862C245.342 483.189 245.183 483.637 245.183 484.206V487.384C245.183 487.608 245.122 487.785 245.001 487.916C244.889 488.037 244.712 488.098 244.469 488.098ZM254.139 490.618C253.971 490.618 253.831 490.571 253.719 490.478C253.616 490.394 253.556 490.277 253.537 490.128C253.528 489.988 253.556 489.834 253.621 489.666L254.573 487.524V488.126L251.955 482.036C251.89 481.868 251.866 481.709 251.885 481.56C251.904 481.411 251.974 481.294 252.095 481.21C252.216 481.117 252.38 481.07 252.585 481.07C252.762 481.07 252.902 481.112 253.005 481.196C253.108 481.28 253.201 481.425 253.285 481.63L255.399 486.852H255.007L257.149 481.63C257.233 481.415 257.331 481.271 257.443 481.196C257.555 481.112 257.709 481.07 257.905 481.07C258.073 481.07 258.204 481.117 258.297 481.21C258.4 481.294 258.46 481.411 258.479 481.56C258.507 481.7 258.484 481.854 258.409 482.022L254.909 490.072C254.816 490.287 254.708 490.431 254.587 490.506C254.475 490.581 254.326 490.618 254.139 490.618ZM262.577 488.126C261.887 488.126 261.289 487.981 260.785 487.692C260.291 487.403 259.903 486.992 259.623 486.46C259.343 485.928 259.203 485.303 259.203 484.584C259.203 484.033 259.283 483.543 259.441 483.114C259.6 482.685 259.824 482.316 260.113 482.008C260.412 481.691 260.767 481.453 261.177 481.294C261.597 481.126 262.064 481.042 262.577 481.042C263.259 481.042 263.847 481.187 264.341 481.476C264.845 481.765 265.237 482.176 265.517 482.708C265.797 483.231 265.937 483.856 265.937 484.584C265.937 485.125 265.858 485.615 265.699 486.054C265.541 486.493 265.312 486.866 265.013 487.174C264.724 487.482 264.369 487.72 263.949 487.888C263.539 488.047 263.081 488.126 262.577 488.126ZM262.577 487.034C262.96 487.034 263.296 486.941 263.585 486.754C263.875 486.567 264.099 486.292 264.257 485.928C264.425 485.564 264.509 485.116 264.509 484.584C264.509 483.781 264.332 483.175 263.977 482.764C263.623 482.353 263.156 482.148 262.577 482.148C262.185 482.148 261.845 482.241 261.555 482.428C261.266 482.605 261.037 482.876 260.869 483.24C260.711 483.604 260.631 484.052 260.631 484.584C260.631 485.377 260.809 485.984 261.163 486.404C261.518 486.824 261.989 487.034 262.577 487.034ZM269.891 488.126C269.341 488.126 268.879 488.023 268.505 487.818C268.141 487.613 267.866 487.309 267.679 486.908C267.502 486.497 267.413 485.984 267.413 485.368V481.784C267.413 481.541 267.474 481.364 267.595 481.252C267.717 481.131 267.889 481.07 268.113 481.07C268.337 481.07 268.51 481.131 268.631 481.252C268.762 481.364 268.827 481.541 268.827 481.784V485.382C268.827 485.933 268.939 486.339 269.163 486.6C269.387 486.861 269.742 486.992 270.227 486.992C270.759 486.992 271.189 486.815 271.515 486.46C271.851 486.096 272.019 485.62 272.019 485.032V481.784C272.019 481.541 272.08 481.364 272.201 481.252C272.323 481.131 272.5 481.07 272.733 481.07C272.957 481.07 273.13 481.131 273.251 481.252C273.373 481.364 273.433 481.541 273.433 481.784V487.384C273.433 487.86 273.205 488.098 272.747 488.098C272.533 488.098 272.365 488.037 272.243 487.916C272.122 487.785 272.061 487.608 272.061 487.384V486.194L272.243 486.502C272.057 487.025 271.758 487.426 271.347 487.706C270.937 487.986 270.451 488.126 269.891 488.126ZM276.196 489.414C276.093 489.545 275.981 489.619 275.86 489.638C275.748 489.657 275.65 489.633 275.566 489.568C275.482 489.503 275.435 489.409 275.426 489.288C275.417 489.176 275.468 489.05 275.58 488.91C275.748 488.705 275.86 488.49 275.916 488.266C275.981 488.051 276.014 487.86 276.014 487.692L276.07 488.056C275.79 488.056 275.561 487.977 275.384 487.818C275.216 487.65 275.132 487.431 275.132 487.16C275.132 486.899 275.211 486.689 275.37 486.53C275.529 486.362 275.743 486.278 276.014 486.278C276.294 486.278 276.513 486.376 276.672 486.572C276.84 486.759 276.924 487.029 276.924 487.384C276.924 487.589 276.901 487.804 276.854 488.028C276.817 488.252 276.747 488.481 276.644 488.714C276.541 488.947 276.392 489.181 276.196 489.414ZM284.428 488.126C283.7 488.126 283.149 487.916 282.776 487.496C282.412 487.067 282.23 486.451 282.23 485.648V478.746C282.23 478.513 282.29 478.335 282.412 478.214C282.533 478.093 282.706 478.032 282.93 478.032C283.154 478.032 283.326 478.093 283.448 478.214C283.578 478.335 283.644 478.513 283.644 478.746V485.564C283.644 486.031 283.737 486.381 283.924 486.614C284.12 486.838 284.4 486.95 284.764 486.95C284.848 486.95 284.922 486.95 284.988 486.95C285.053 486.941 285.118 486.931 285.184 486.922C285.296 486.913 285.375 486.945 285.422 487.02C285.468 487.085 285.492 487.225 285.492 487.44C285.492 487.636 285.45 487.79 285.366 487.902C285.282 488.005 285.146 488.07 284.96 488.098C284.876 488.107 284.787 488.112 284.694 488.112C284.6 488.121 284.512 488.126 284.428 488.126ZM289.577 488.126C288.83 488.126 288.186 487.986 287.645 487.706C287.113 487.417 286.697 487.011 286.399 486.488C286.109 485.956 285.965 485.326 285.965 484.598C285.965 483.889 286.109 483.268 286.399 482.736C286.688 482.204 287.085 481.789 287.589 481.49C288.093 481.191 288.667 481.042 289.311 481.042C289.787 481.042 290.211 481.121 290.585 481.28C290.958 481.429 291.275 481.653 291.537 481.952C291.807 482.241 292.008 482.596 292.139 483.016C292.279 483.436 292.349 483.907 292.349 484.43C292.349 484.589 292.302 484.71 292.209 484.794C292.115 484.869 291.975 484.906 291.789 484.906H287.085V484.038H291.397L291.159 484.234C291.159 483.767 291.089 483.371 290.949 483.044C290.818 482.717 290.617 482.47 290.347 482.302C290.085 482.125 289.759 482.036 289.367 482.036C288.928 482.036 288.555 482.139 288.247 482.344C287.948 482.549 287.719 482.834 287.561 483.198C287.402 483.562 287.323 483.987 287.323 484.472V484.556C287.323 485.377 287.514 485.998 287.897 486.418C288.289 486.829 288.853 487.034 289.591 487.034C289.871 487.034 290.165 486.997 290.473 486.922C290.79 486.847 291.089 486.721 291.369 486.544C291.527 486.451 291.667 486.409 291.789 486.418C291.919 486.427 292.022 486.469 292.097 486.544C292.181 486.619 292.232 486.712 292.251 486.824C292.269 486.936 292.251 487.053 292.195 487.174C292.139 487.286 292.041 487.389 291.901 487.482C291.583 487.697 291.215 487.86 290.795 487.972C290.375 488.075 289.969 488.126 289.577 488.126ZM296.004 488.126C295.528 488.126 295.099 488.033 294.716 487.846C294.343 487.659 294.049 487.407 293.834 487.09C293.62 486.773 293.512 486.413 293.512 486.012C293.512 485.508 293.638 485.111 293.89 484.822C294.152 484.523 294.576 484.313 295.164 484.192C295.762 484.061 296.564 483.996 297.572 483.996H298.23V484.864H297.586C296.914 484.864 296.382 484.897 295.99 484.962C295.598 485.027 295.318 485.139 295.15 485.298C294.992 485.447 294.912 485.657 294.912 485.928C294.912 486.283 295.034 486.572 295.276 486.796C295.519 487.011 295.855 487.118 296.284 487.118C296.63 487.118 296.933 487.039 297.194 486.88C297.456 486.712 297.661 486.488 297.81 486.208C297.969 485.928 298.048 485.606 298.048 485.242V483.632C298.048 483.1 297.936 482.717 297.712 482.484C297.488 482.251 297.12 482.134 296.606 482.134C296.308 482.134 295.995 482.171 295.668 482.246C295.351 482.321 295.02 482.447 294.674 482.624C294.516 482.699 294.38 482.722 294.268 482.694C294.156 482.666 294.068 482.605 294.002 482.512C293.937 482.409 293.9 482.302 293.89 482.19C293.89 482.069 293.918 481.952 293.974 481.84C294.04 481.728 294.147 481.644 294.296 481.588C294.707 481.392 295.113 481.252 295.514 481.168C295.916 481.084 296.294 481.042 296.648 481.042C297.274 481.042 297.787 481.14 298.188 481.336C298.599 481.532 298.902 481.831 299.098 482.232C299.294 482.633 299.392 483.151 299.392 483.786V487.384C299.392 487.608 299.336 487.785 299.224 487.916C299.112 488.037 298.949 488.098 298.734 488.098C298.529 488.098 298.366 488.037 298.244 487.916C298.123 487.785 298.062 487.608 298.062 487.384V486.474H298.188C298.114 486.819 297.974 487.118 297.768 487.37C297.572 487.613 297.325 487.799 297.026 487.93C296.728 488.061 296.387 488.126 296.004 488.126ZM301.984 488.098C301.75 488.098 301.573 488.037 301.452 487.916C301.33 487.785 301.27 487.608 301.27 487.384V481.784C301.27 481.551 301.33 481.373 301.452 481.252C301.573 481.131 301.741 481.07 301.956 481.07C302.18 481.07 302.348 481.131 302.46 481.252C302.581 481.373 302.642 481.551 302.642 481.784V482.806H302.502C302.651 482.246 302.926 481.821 303.328 481.532C303.729 481.243 304.242 481.075 304.868 481.028C305.036 481.019 305.166 481.061 305.26 481.154C305.362 481.247 305.418 481.392 305.428 481.588C305.446 481.784 305.404 481.943 305.302 482.064C305.199 482.176 305.04 482.241 304.826 482.26L304.56 482.288C303.953 482.344 303.491 482.535 303.174 482.862C302.856 483.189 302.698 483.637 302.698 484.206V487.384C302.698 487.608 302.637 487.785 302.516 487.916C302.404 488.037 302.226 488.098 301.984 488.098ZM307.122 488.098C306.898 488.098 306.726 488.037 306.604 487.916C306.483 487.785 306.422 487.608 306.422 487.384V481.784C306.422 481.551 306.483 481.373 306.604 481.252C306.726 481.131 306.894 481.07 307.108 481.07C307.332 481.07 307.5 481.131 307.612 481.252C307.734 481.373 307.794 481.551 307.794 481.784V482.876L307.64 482.624C307.846 482.101 308.168 481.709 308.606 481.448C309.045 481.177 309.549 481.042 310.118 481.042C310.66 481.042 311.108 481.145 311.462 481.35C311.826 481.546 312.097 481.849 312.274 482.26C312.452 482.661 312.54 483.17 312.54 483.786V487.384C312.54 487.608 312.48 487.785 312.358 487.916C312.237 488.037 312.064 488.098 311.84 488.098C311.607 488.098 311.43 488.037 311.308 487.916C311.187 487.785 311.126 487.608 311.126 487.384V483.87C311.126 483.282 311.01 482.853 310.776 482.582C310.552 482.311 310.198 482.176 309.712 482.176C309.143 482.176 308.686 482.353 308.34 482.708C308.004 483.063 307.836 483.539 307.836 484.136V487.384C307.836 487.86 307.598 488.098 307.122 488.098ZM159.982 507.098C159.758 507.098 159.586 507.037 159.464 506.916C159.343 506.785 159.282 506.608 159.282 506.384V500.784C159.282 500.551 159.343 500.373 159.464 500.252C159.586 500.131 159.754 500.07 159.968 500.07C160.192 500.07 160.36 500.131 160.472 500.252C160.594 500.373 160.654 500.551 160.654 500.784V501.932L160.5 501.624C160.687 501.129 160.976 500.742 161.368 500.462C161.76 500.182 162.232 500.042 162.782 500.042C163.352 500.042 163.814 500.177 164.168 500.448C164.523 500.719 164.766 501.134 164.896 501.694H164.7C164.878 501.181 165.181 500.779 165.61 500.49C166.04 500.191 166.539 500.042 167.108 500.042C167.631 500.042 168.06 500.145 168.396 500.35C168.732 500.546 168.984 500.849 169.152 501.26C169.32 501.661 169.404 502.17 169.404 502.786V506.384C169.404 506.608 169.339 506.785 169.208 506.916C169.087 507.037 168.914 507.098 168.69 507.098C168.466 507.098 168.294 507.037 168.172 506.916C168.051 506.785 167.99 506.608 167.99 506.384V502.856C167.99 502.277 167.888 501.853 167.682 501.582C167.486 501.311 167.16 501.176 166.702 501.176C166.189 501.176 165.783 501.353 165.484 501.708C165.186 502.063 165.036 502.553 165.036 503.178V506.384C165.036 506.608 164.976 506.785 164.854 506.916C164.733 507.037 164.56 507.098 164.336 507.098C164.112 507.098 163.935 507.037 163.804 506.916C163.683 506.785 163.622 506.608 163.622 506.384V502.856C163.622 502.277 163.524 501.853 163.328 501.582C163.132 501.311 162.806 501.176 162.348 501.176C161.835 501.176 161.429 501.353 161.13 501.708C160.841 502.063 160.696 502.553 160.696 503.178V506.384C160.696 506.86 160.458 507.098 159.982 507.098ZM174.279 507.126C173.589 507.126 172.991 506.981 172.487 506.692C171.993 506.403 171.605 505.992 171.325 505.46C171.045 504.928 170.905 504.303 170.905 503.584C170.905 503.033 170.985 502.543 171.143 502.114C171.302 501.685 171.526 501.316 171.815 501.008C172.114 500.691 172.469 500.453 172.879 500.294C173.299 500.126 173.766 500.042 174.279 500.042C174.961 500.042 175.549 500.187 176.043 500.476C176.547 500.765 176.939 501.176 177.219 501.708C177.499 502.231 177.639 502.856 177.639 503.584C177.639 504.125 177.56 504.615 177.401 505.054C177.243 505.493 177.014 505.866 176.715 506.174C176.426 506.482 176.071 506.72 175.651 506.888C175.241 507.047 174.783 507.126 174.279 507.126ZM174.279 506.034C174.662 506.034 174.998 505.941 175.287 505.754C175.577 505.567 175.801 505.292 175.959 504.928C176.127 504.564 176.211 504.116 176.211 503.584C176.211 502.781 176.034 502.175 175.679 501.764C175.325 501.353 174.858 501.148 174.279 501.148C173.887 501.148 173.547 501.241 173.257 501.428C172.968 501.605 172.739 501.876 172.571 502.24C172.413 502.604 172.333 503.052 172.333 503.584C172.333 504.377 172.511 504.984 172.865 505.404C173.22 505.824 173.691 506.034 174.279 506.034ZM179.871 507.098C179.638 507.098 179.461 507.037 179.339 506.916C179.218 506.785 179.157 506.608 179.157 506.384V500.784C179.157 500.551 179.218 500.373 179.339 500.252C179.461 500.131 179.629 500.07 179.843 500.07C180.067 500.07 180.235 500.131 180.347 500.252C180.469 500.373 180.529 500.551 180.529 500.784V501.806H180.389C180.539 501.246 180.814 500.821 181.215 500.532C181.617 500.243 182.13 500.075 182.755 500.028C182.923 500.019 183.054 500.061 183.147 500.154C183.25 500.247 183.306 500.392 183.315 500.588C183.334 500.784 183.292 500.943 183.189 501.064C183.087 501.176 182.928 501.241 182.713 501.26L182.447 501.288C181.841 501.344 181.379 501.535 181.061 501.862C180.744 502.189 180.585 502.637 180.585 503.206V506.384C180.585 506.608 180.525 506.785 180.403 506.916C180.291 507.037 180.114 507.098 179.871 507.098ZM187.42 507.126C186.674 507.126 186.03 506.986 185.488 506.706C184.956 506.417 184.541 506.011 184.242 505.488C183.953 504.956 183.808 504.326 183.808 503.598C183.808 502.889 183.953 502.268 184.242 501.736C184.532 501.204 184.928 500.789 185.432 500.49C185.936 500.191 186.51 500.042 187.154 500.042C187.63 500.042 188.055 500.121 188.428 500.28C188.802 500.429 189.119 500.653 189.38 500.952C189.651 501.241 189.852 501.596 189.982 502.016C190.122 502.436 190.192 502.907 190.192 503.43C190.192 503.589 190.146 503.71 190.052 503.794C189.959 503.869 189.819 503.906 189.632 503.906H184.928V503.038H189.24L189.002 503.234C189.002 502.767 188.932 502.371 188.792 502.044C188.662 501.717 188.461 501.47 188.19 501.302C187.929 501.125 187.602 501.036 187.21 501.036C186.772 501.036 186.398 501.139 186.09 501.344C185.792 501.549 185.563 501.834 185.404 502.198C185.246 502.562 185.166 502.987 185.166 503.472V503.556C185.166 504.377 185.358 504.998 185.74 505.418C186.132 505.829 186.697 506.034 187.434 506.034C187.714 506.034 188.008 505.997 188.316 505.922C188.634 505.847 188.932 505.721 189.212 505.544C189.371 505.451 189.511 505.409 189.632 505.418C189.763 505.427 189.866 505.469 189.94 505.544C190.024 505.619 190.076 505.712 190.094 505.824C190.113 505.936 190.094 506.053 190.038 506.174C189.982 506.286 189.884 506.389 189.744 506.482C189.427 506.697 189.058 506.86 188.638 506.972C188.218 507.075 187.812 507.126 187.42 507.126Z" fill="#E4E4E4"/>
</svg>
