<svg width="21" height="25" viewBox="0 0 21 25" fill="none" xmlns="http://www.w3.org/2000/svg">
<path d="M6.43478 19.493C7.77679 19.6265 9.12472 19.6918 10.4734 19.6887C11.2566 19.6887 11.9635 19.6771 12.6047 19.6496M6.43478 19.493L6.53831 18.4983C6.53754 18.4983 6.53677 18.4982 6.536 18.4981M6.43478 19.493C6.17142 19.4656 5.92567 19.4353 5.69559 19.4039C5.46552 19.3726 5.24914 19.3392 5.05333 19.3059M6.43478 19.493L6.53379 18.4979C6.53453 18.498 6.53526 18.498 6.536 18.4981M6.536 18.4981C7.8436 18.6281 9.15698 18.6917 10.4711 18.6887L10.4734 18.6887C11.2474 18.6887 11.9392 18.6772 12.562 18.6506M6.536 18.4981C6.28533 18.472 6.0509 18.4431 5.83052 18.4131C5.6128 18.3834 5.40861 18.3519 5.22466 18.3207M12.562 18.6506C12.5617 18.6506 12.5614 18.6506 12.5611 18.6506L12.6047 19.6496M12.562 18.6506L12.6047 19.6496M12.562 18.6506C13.6544 18.6028 14.5335 18.5173 15.2358 18.4169L15.2364 18.4168C15.508 18.3781 15.7557 18.3333 15.9966 18.2897C16.0165 18.286 16.0364 18.2824 16.0562 18.2789L16.0831 18.274L16.1103 18.2706C16.6842 18.199 17.2399 18.0219 17.7494 17.7483M12.6047 19.6496C13.7258 19.6007 14.6383 19.5125 15.3774 19.4068C15.6685 19.3654 15.9338 19.3173 16.1727 19.274C16.1933 19.2703 16.2138 19.2666 16.2341 19.2629C16.9385 19.175 17.6201 18.9561 18.2441 18.6177M17.7494 17.7483C17.7438 17.7516 17.7382 17.755 17.7326 17.7583L18.2441 18.6177M17.7494 17.7483C17.7554 17.7451 17.7613 17.7419 17.7672 17.7387L18.2441 18.6177M17.7494 17.7483C18.1284 17.5198 18.4593 17.2199 18.7238 16.8651C18.9922 16.5051 19.187 16.0956 19.2969 15.6601C19.4068 15.2248 19.4298 14.772 19.3645 14.3276C19.3028 13.9083 19.1637 13.5043 18.9543 13.1362M18.2441 18.6177C18.743 18.3207 19.1785 17.9283 19.5255 17.4628C19.8725 16.9973 20.1243 16.4679 20.2665 15.905C20.4086 15.342 20.4383 14.7566 20.3538 14.1822C20.2694 13.6077 20.0725 13.0556 19.7743 12.5574L19.0134 13.2063C18.9936 13.183 18.9739 13.1597 18.9543 13.1362M18.9543 13.1362C18.4104 12.4839 17.9696 11.7518 17.6476 10.9655L17.643 10.9544L17.6431 10.9544C17.3757 10.2785 17.2406 9.55774 17.245 8.831V8.61767C17.245 6.82221 16.5318 5.10033 15.2623 3.83077C13.9927 2.56122 12.2707 1.84802 10.4753 1.84802C8.67931 1.84802 6.957 2.56143 5.68706 3.83137C4.4171 5.10132 3.70359 6.82376 3.70359 8.6197V8.8348C3.70806 9.55828 3.57357 10.2758 3.30745 10.9485L3.30331 10.959L3.30326 10.9589C2.98106 11.7474 2.53948 12.4815 1.99415 13.1354C1.78458 13.5035 1.64522 13.9076 1.58338 14.3272C1.51788 14.7716 1.54069 15.2246 1.6505 15.6601C1.76033 16.0958 1.95496 16.5054 2.22329 16.8656C2.4906 17.2245 2.82584 17.5273 3.20986 17.7569M18.9543 13.1362L5.05333 19.3059M5.05333 19.3059L5.22092 18.3201C5.22217 18.3203 5.22341 18.3205 5.22466 18.3207M5.05333 19.3059L5.22867 18.3214L5.22466 18.3207M5.22466 18.3207L4.94966 18.2717C4.77689 18.2384 4.62407 18.2073 4.48627 18.1762L4.26927 18.1246L4.15526 18.0975H4.13623M4.13623 18.0975C3.98799 18.0612 3.84195 18.0164 3.69895 17.9632L3.68942 17.9597L3.67983 17.9564C3.6206 17.9357 3.57325 17.9185 3.53598 17.904L3.52555 17.9L3.51503 17.8961C3.42546 17.8636 3.33825 17.8255 3.25383 17.7822M4.13623 18.0975H4.13544L4.14315 18.0992C4.14084 18.0986 4.13854 18.0981 4.13623 18.0975ZM3.25383 17.7822L3.21954 17.7625L3.20986 17.7569M3.25383 17.7822C3.24986 17.7801 3.24591 17.7781 3.24195 17.776M3.25383 17.7822L3.27237 17.7928L3.2718 17.7938L3.27581 17.7962L3.33137 17.8411C3.31155 17.8251 3.29126 17.81 3.27058 17.7959L3.03138 18.2122L3.24195 17.776M3.20986 17.7569C3.21138 17.7578 3.21289 17.7587 3.21441 17.7596L3.21945 17.7626L3.24195 17.776M3.20986 17.7569L3.1535 17.7245L3.0825 17.697C3.12725 17.7143 3.17129 17.7354 3.21403 17.7603C3.21572 17.7612 3.21742 17.7622 3.2191 17.7632C3.22536 17.7669 3.23158 17.7707 3.23777 17.7745L3.24195 17.776" fill="#CDE9D4" stroke="#CDE9D4" stroke-width="2"/>
<path d="M10.4167 21.8783L10.4778 21.882L10.5389 21.8783C11.3322 21.8297 12.1267 21.9306 12.8812 22.1747C12.7709 22.3993 12.6159 22.6001 12.4246 22.7642C12.1666 22.9857 11.8526 23.1319 11.5172 23.1869L11.4668 23.1952L11.4175 23.2086C10.804 23.3748 10.1573 23.3748 9.54384 23.2086L9.49474 23.1953L9.44454 23.187C9.10901 23.1318 8.79504 22.9855 8.53695 22.764L7.88567 23.5228L8.53695 22.764C8.3453 22.5995 8.18997 22.3983 8.07952 22.1731C8.83258 21.9302 9.62524 21.8299 10.4167 21.8783Z" fill="#CDE9D4" stroke="#CDE9D4" stroke-width="2"/>
</svg>
