<svg width="21" height="21" viewBox="0 0 21 21" fill="none" xmlns="http://www.w3.org/2000/svg">
<path d="M18.375 5.25001L18.375 7.125C18.375 7.35797 18.375 7.47446 18.3369 7.56634C18.2862 7.68886 18.1889 7.7862 18.0663 7.83694C17.9745 7.875 17.858 7.875 17.625 7.875L13.125 7.875L13.125 18.375L10.5 17.5L7.875 18.375L5.25 17.5L2.625 18.375L2.625 6.62501C2.625 4.73939 2.625 3.79658 3.21079 3.2108C3.79657 2.62501 4.73938 2.62501 6.62499 2.62501L6.625 2.62501L15.75 2.62501C17.1997 2.62501 18.375 3.80026 18.375 5.25001Z" fill="#1C1C25"/>
<path d="M6.125 6.125L9.625 6.125" stroke="white" stroke-width="2" stroke-linecap="round"/>
<path d="M7 9.625H6.125" stroke="white" stroke-width="2" stroke-linecap="round"/>
<path d="M6.125 13.125L8.75 13.125" stroke="white" stroke-width="2" stroke-linecap="round"/>
</svg>
