<svg width="21" height="21" viewBox="0 0 21 21" fill="none" xmlns="http://www.w3.org/2000/svg">
<path fill-rule="evenodd" clip-rule="evenodd" d="M10.5 1.75C8.08376 1.75 6.125 3.70876 6.125 6.125V7.1498C4.28182 7.36125 2.85753 8.82886 2.72227 10.7002C2.66571 11.483 2.625 12.3244 2.625 13.125C2.625 13.9256 2.66571 14.767 2.72228 15.5498C2.86245 17.4892 4.38704 18.9949 6.32757 19.1182C7.48806 19.192 8.90706 19.25 10.5 19.25C12.0929 19.25 13.5119 19.192 14.6724 19.1182C16.6129 18.9949 18.1375 17.4892 18.2777 15.5498C18.3343 14.767 18.375 13.9256 18.375 13.125C18.375 12.3244 18.3343 11.483 18.2777 10.7002C18.1424 8.82886 16.7181 7.36125 14.875 7.1498V6.125C14.875 3.70876 12.9162 1.75 10.5 1.75ZM13.125 7.05208V6.125C13.125 4.67526 11.9498 3.5 10.5 3.5C9.05021 3.5 7.875 4.67526 7.875 6.125V7.05208C8.67758 7.02027 9.5584 7 10.5 7C11.4416 7 12.3224 7.02027 13.125 7.05208ZM11.375 13.7659C11.8981 13.4633 12.25 12.8978 12.25 12.25C12.25 11.2835 11.4665 10.5 10.5 10.5C9.53347 10.5 8.75 11.2835 8.75 12.25C8.75 12.8978 9.10192 13.4633 9.625 13.7659V14.875C9.625 15.3583 10.0167 15.75 10.5 15.75C10.9833 15.75 11.375 15.3583 11.375 14.875V13.7659Z" fill="#1C1C25"/>
</svg>
