<svg width="17" height="19" viewBox="0 0 17 19" fill="none" xmlns="http://www.w3.org/2000/svg">
<path fill-rule="evenodd" clip-rule="evenodd" d="M5.06216 18.135L5.38405 16.0821L4.66699 16.0653H1.24292L3.62253 0.916047C3.62994 0.870173 3.65391 0.827588 3.68891 0.797294C3.72408 0.767 3.76891 0.750381 3.8158 0.750381H9.58931C11.5062 0.750381 12.8289 1.15078 13.5194 1.9412C13.8432 2.312 14.0494 2.69959 14.1492 3.12596C14.2539 3.57345 14.2556 4.10801 14.1535 4.76011L14.1461 4.80754V5.22543L14.4699 5.40961C14.7425 5.55485 14.9592 5.72104 15.1254 5.91128C15.4023 6.22842 15.5814 6.63142 15.6571 7.10903C15.7354 7.60031 15.7095 8.18507 15.5814 8.84704C15.4337 9.60838 15.1949 10.2716 14.8723 10.8141C14.5758 11.314 14.1978 11.7288 13.7491 12.0501C13.3206 12.3554 12.8117 12.5872 12.2362 12.7356C11.6784 12.8814 11.0426 12.9549 10.3452 12.9549H9.89586C9.57466 12.9549 9.2626 13.0711 9.0176 13.2793C8.77192 13.4919 8.60951 13.7824 8.55968 14.1L8.52571 14.2849L7.95693 17.9034L7.93124 18.0362C7.92435 18.0783 7.91262 18.0992 7.89538 18.1134C7.88004 18.1264 7.85797 18.135 7.83642 18.135H5.06216Z" fill="#28356A"/>
<path fill-rule="evenodd" clip-rule="evenodd" d="M14.7768 4.85579C14.7597 4.96641 14.7399 5.07945 14.7178 5.1956C13.9565 9.12068 11.3515 10.4766 8.02467 10.4766H6.33074C5.92385 10.4766 5.58093 10.7732 5.51765 11.1762L4.40474 18.2641C4.36353 18.5288 4.56663 18.7672 4.83249 18.7672H7.83692C8.1926 18.7672 8.49484 18.5077 8.55087 18.1554L8.58035 18.0022L9.14603 14.3979L9.18241 14.2002C9.23775 13.8467 9.54068 13.5871 9.89636 13.5871H10.3457C13.2565 13.5871 15.5352 12.4006 16.2012 8.96678C16.4793 7.5324 16.3354 6.33466 15.5992 5.49231C15.3764 5.23836 15.1001 5.02751 14.7768 4.85579Z" fill="#298FC2"/>
<path fill-rule="evenodd" clip-rule="evenodd" d="M13.9799 4.53697C13.8635 4.50287 13.7435 4.47206 13.6204 4.44419C13.4966 4.41701 13.3699 4.39295 13.2394 4.37183C12.7826 4.29774 12.2821 4.2626 11.7461 4.2626H7.22085C7.1093 4.2626 7.00344 4.28787 6.90879 4.33357C6.7 4.43432 6.545 4.6327 6.50742 4.87558L5.54468 10.9978L5.51709 11.1762C5.58036 10.7732 5.92329 10.4767 6.33018 10.4767H8.02411C11.3509 10.4767 13.9559 9.12004 14.7173 5.19565C14.74 5.0795 14.7592 4.96646 14.7762 4.85584C14.5836 4.75319 14.375 4.66542 14.1504 4.59064C14.0949 4.57212 14.0376 4.55428 13.9799 4.53697Z" fill="#22284F"/>
<path fill-rule="evenodd" clip-rule="evenodd" d="M6.50768 4.87559C6.54527 4.63272 6.70027 4.43434 6.90905 4.33428C7.0044 4.28841 7.10957 4.26313 7.22112 4.26313H11.7464C12.2824 4.26313 12.7829 4.29845 13.2396 4.37254C13.3701 4.39348 13.4969 4.41772 13.6207 4.4449C13.7438 4.47259 13.8638 4.50358 13.9801 4.53751C14.0379 4.55482 14.0951 4.57282 14.1512 4.59065C14.3758 4.66544 14.5846 4.7539 14.7772 4.85586C15.0037 3.40538 14.7753 2.41779 13.9943 1.52351C13.1331 0.538863 11.579 0.117516 9.59021 0.117516H3.81653C3.41033 0.117516 3.06378 0.414051 3.00102 0.817742L0.596242 16.1228C0.548829 16.4256 0.781411 16.6988 1.08554 16.6988H4.64996L6.50768 4.87559Z" fill="#28356A"/>
</svg>
