<svg width="31" height="30" viewBox="0 0 31 30" fill="none" xmlns="http://www.w3.org/2000/svg">
<path fill-rule="evenodd" clip-rule="evenodd" d="M17.3005 1.32398L21.1008 9.34065L28.8835 10.1662C29.6893 10.2443 30.3675 10.8026 30.5991 11.5783C30.8307 12.3541 30.5696 13.1928 29.9386 13.7L23.7333 18.8025L25.653 27.3803C25.8283 28.1597 25.5209 28.9685 24.872 29.4346C24.2232 29.9007 23.3586 29.9338 22.676 29.5188L15.5 25.153L8.31746 29.5167C7.63451 29.9309 6.77026 29.8974 6.12139 29.4316C5.47252 28.9658 5.16434 28.1577 5.33829 27.3782L7.26663 18.8025L1.06129 13.7C0.434816 13.1915 0.17715 12.3552 0.40883 11.5823C0.64051 10.8094 1.31573 10.2527 2.11863 10.1727L9.89913 9.34715L13.6995 1.32398C14.0297 0.62891 14.7304 0.185974 15.5 0.185974C16.2695 0.185974 16.9703 0.62891 17.3005 1.32398Z" fill="#1C1C25"/>
</svg>
