<svg width="35" height="12" viewBox="0 0 35 12" fill="none" xmlns="http://www.w3.org/2000/svg">
<path fill-rule="evenodd" clip-rule="evenodd" d="M8.87541 11.7615H5.90696L3.68098 3.26932C3.57533 2.87868 3.351 2.53333 3.02101 2.37056C2.19748 1.96152 1.29001 1.63599 0.300049 1.4718V1.14485H5.08199C5.74197 1.14485 6.23695 1.63599 6.31945 2.20638L7.47441 8.3321L10.4414 1.14485H13.3274L8.87541 11.7615ZM14.9774 11.7615H12.1739L14.4824 1.14485H17.2858L14.9774 11.7615ZM20.9127 4.086C20.9952 3.51419 21.4902 3.18724 22.0676 3.18724C22.9751 3.10515 23.9636 3.26933 24.7886 3.67696L25.2836 1.39114C24.4586 1.06418 23.5511 0.900002 22.7276 0.900002C20.0067 0.900002 18.0267 2.37057 18.0267 4.41154C18.0267 5.9642 19.4292 6.77945 20.4192 7.27058C21.4902 7.7603 21.9027 8.08725 21.8202 8.57697C21.8202 9.31155 20.9952 9.6385 20.1717 9.6385C19.1817 9.6385 18.1917 9.39364 17.2857 8.9846L16.7907 11.2718C17.7807 11.6795 18.8517 11.8436 19.8417 11.8436C22.8926 11.9243 24.7886 10.4552 24.7886 8.25002C24.7886 5.47306 20.9127 5.3103 20.9127 4.086ZM34.6001 11.7615L32.3741 1.14485H29.9831C29.4882 1.14485 28.9932 1.4718 28.8282 1.96152L24.7062 11.7615H27.5922L28.1682 10.2103H31.7141L32.0441 11.7615H34.6001ZM30.3956 4.00391L31.2191 8.00517H28.9107L30.3956 4.00391Z" fill="#172B85"/>
</svg>
